<svg width="32" height="32" viewBox="0 0 32 32" fill="none" xmlns="http://www.w3.org/2000/svg">
<path fill-rule="evenodd" clip-rule="evenodd" d="M19.9999 8H22.6666V10.6667H19.9999V8ZM17.3333 13.3333V10.6667H19.9999V13.3333H17.3333ZM14.6666 16V13.3333H17.3333V16H14.6666ZM11.9999 18.6667V16H14.6666V18.6667H11.9999ZM9.33325 21.3333V18.6667H11.9999V21.3333H9.33325ZM6.66659 21.3333H9.33325V24H6.66659V21.3333ZM3.99992 18.6667H6.66659V21.3333H3.99992V18.6667ZM3.99992 18.6667H1.33325V16H3.99992V18.6667ZM14.6666 21.3333H17.3333V24H14.6666V21.3333ZM19.9999 18.6667V21.3333H17.3333V18.6667H19.9999ZM22.6666 16V18.6667H19.9999V16H22.6666ZM25.3333 13.3333V16H22.6666V13.3333H25.3333ZM27.9999 10.6667H25.3333V13.3333H27.9999V10.6667ZM27.9999 10.6667H30.6666V8H27.9999V10.6667Z" fill="#0A0A0A"/>
</svg>
