<svg width="32" height="22" viewBox="0 0 32 22" fill="none" xmlns="http://www.w3.org/2000/svg">
<path fill-rule="evenodd" clip-rule="evenodd" d="M21.3333 0H13.3333V2.66667H10.6667V5.33333H5.33333V8H2.66667V10.6667H0V18.6667H2.66667V21.3333H29.3333V18.6667H32V10.6667H29.3333V8H26.6667V5.33333H24V2.66667H21.3333V0ZM21.3333 2.66667V5.33333H24V8V10.6667H26.6667H29.3333V18.6667H2.66667V10.6667H5.33333V8H10.6667V5.33333H13.3333V2.66667H21.3333ZM13.3333 10.6667H10.6667V13.3333H13.3333V16H16V13.3333H18.6667V10.6667H21.3333V8H18.6667V10.6667H16V13.3333H13.3333V10.6667Z" fill="#0A0A0A"/>
</svg>
