<svg width="22" height="24" viewBox="0 0 22 24" fill="none" xmlns="http://www.w3.org/2000/svg">
<path fill-rule="evenodd" clip-rule="evenodd" d="M10.8125 0H12.975V8.65H21.625V10.8125V12.975H19.4625V10.8125H12.975H10.8125V8.65V4.325H8.65V2.1625H10.8125V0ZM6.4875 6.4875V4.325H8.65V6.4875H6.4875ZM4.325 8.65V6.4875H6.4875V8.65H4.325ZM2.1625 10.8125V8.65H4.325V10.8125H2.1625ZM12.975 19.4625V21.625H10.8125V23.7875H8.65V15.1375H0V12.975V10.8125H2.1625V12.975H8.65H10.8125V15.1375V19.4625H12.975ZM15.1375 17.3V19.4625H12.975V17.3H15.1375ZM17.3 15.1375V17.3H15.1375V15.1375H17.3ZM17.3 15.1375H19.4625V12.975H17.3V15.1375Z" fill="#0A0A0A"/>
</svg>
