<svg width="32" height="32" viewBox="0 0 32 32" fill="none" xmlns="http://www.w3.org/2000/svg">
<path fill-rule="evenodd" clip-rule="evenodd" d="M14.6667 1.33203H12V3.9987H14.6667V6.66536H6.66667V9.33203H4V22.6654H6.66667V25.332H9.33333V22.6654H6.66667V9.33203H14.6667V11.9987H12V14.6654H14.6667V11.9987H17.3333V9.33203H20V6.66536H17.3333V3.9987H14.6667V1.33203ZM25.3333 6.66536H22.6667V9.33203H25.3333V22.6654H17.3333V19.9987H20V17.332H17.3333V19.9987H14.6667V22.6654H12V25.332H14.6667V27.9987H17.3333V30.6654H20V27.9987H17.3333V25.332H25.3333V22.6654H28V9.33203H25.3333V6.66536Z" fill="#0A0A0A"/>
</svg>
