<svg width="40" height="40" viewBox="0 0 40 40" fill="none" xmlns="http://www.w3.org/2000/svg">
<path d="M6.55484 13.3608C5.92433 13.3608 5.38813 13.5818 4.94731 14.0249C4.50648 14.467 4.28606 14.9985 4.28606 15.6194V25.1378C4.2802 25.4375 4.33579 25.7353 4.44947 26.013C4.56314 26.2908 4.73253 26.5427 4.94731 26.7533C5.38813 27.1964 5.92433 27.4174 6.5559 27.4174C7.1875 27.4174 7.7205 27.1964 8.15393 26.7544C8.58729 26.3113 8.80457 25.7735 8.80457 25.1378V15.6194C8.80457 14.9985 8.58414 14.468 8.14329 14.0249C7.93886 13.8119 7.69236 13.643 7.41921 13.5289C7.14607 13.4148 6.85219 13.358 6.5559 13.3619L6.55484 13.3608ZM24.8057 4.81595L26.3709 1.91643C26.4736 1.72488 26.4376 1.57754 26.2606 1.4744C26.0699 1.38494 25.9226 1.4302 25.8199 1.60595L24.2335 4.52862C22.8401 3.9091 21.3296 3.59191 19.8029 3.59825C18.2452 3.59825 16.7681 3.90872 15.3735 4.52862L13.7861 1.60595C13.6822 1.4302 13.536 1.38494 13.3453 1.4744C13.1683 1.57754 13.1323 1.72488 13.2351 1.91643L14.8002 4.81595C13.2128 5.62844 11.9496 6.76088 11.0086 8.21433C10.0787 9.63333 9.58836 11.292 9.59821 12.9851H29.9865C29.9956 11.292 29.5049 9.6334 28.575 8.21433C27.644 6.7698 26.3431 5.59698 24.8057 4.81595ZM15.7581 9.03312C15.6804 9.11497 15.5863 9.1799 15.482 9.2239C15.3777 9.2679 15.2654 9.29005 15.152 9.2889C15.0401 9.2909 14.9291 9.26919 14.8264 9.22505C14.7236 9.1809 14.6316 9.11547 14.5565 9.03312C14.4779 8.95255 14.4161 8.85726 14.3746 8.7529C14.3331 8.64847 14.3129 8.53705 14.3149 8.42483C14.3149 8.18905 14.3954 7.98597 14.5565 7.81647C14.6319 7.73447 14.7239 7.66933 14.8266 7.6254C14.9293 7.58155 15.0402 7.55983 15.152 7.56183C15.3873 7.56183 15.5886 7.64597 15.7581 7.81647C15.9277 7.98697 16.0125 8.18905 16.0125 8.42483C16.0136 8.53797 15.9916 8.65026 15.9479 8.75476C15.9041 8.85933 15.8396 8.95397 15.7581 9.03312ZM25.0484 9.03312C24.9731 9.1154 24.8811 9.18076 24.7784 9.22483C24.6757 9.26898 24.5647 9.29076 24.4529 9.2889C24.3395 9.29012 24.2271 9.26797 24.1229 9.22397C24.0185 9.17997 23.9245 9.11497 23.8467 9.03312C23.7649 8.95419 23.7002 8.85955 23.6565 8.75497C23.6128 8.6504 23.5909 8.53805 23.5924 8.42483C23.5924 8.18905 23.6771 7.98597 23.8467 7.81647C23.9246 7.7349 24.0187 7.67019 24.123 7.6264C24.2274 7.58255 24.3396 7.56055 24.4529 7.56183C24.6881 7.56183 24.8862 7.64597 25.0484 7.81647C25.2072 7.97933 25.2945 8.19812 25.2911 8.42483C25.2927 8.53712 25.2721 8.64869 25.2302 8.75312C25.1884 8.85747 25.1273 8.95269 25.0484 9.03312ZM9.68514 28.5246C9.68514 29.2045 9.92036 29.7791 10.3909 30.2506C10.8614 30.7243 11.4336 30.9589 12.1097 30.9589H13.7416L13.7628 35.9855C13.7628 36.619 13.9843 37.159 14.424 37.601C14.8649 38.043 15.3947 38.265 16.0114 38.265C16.643 38.265 17.1792 38.044 17.62 37.602C18.0609 37.159 18.2813 36.6201 18.2813 35.9855V30.96H21.3226V35.9844C21.3165 36.2843 21.3721 36.5823 21.4857 36.8603C21.5994 37.1382 21.7689 37.3902 21.9838 37.601C22.4246 38.043 22.9608 38.265 23.5924 38.265C24.2239 38.265 24.7612 38.044 25.202 37.602C25.6429 37.159 25.8622 36.6201 25.8622 35.9855V30.96H27.5153C28.1766 30.96 28.7424 30.7243 29.2129 30.2517C29.6834 29.7802 29.9186 29.2045 29.9186 28.5257V13.7808H9.68621L9.68514 28.5246ZM33.049 13.3608C32.7538 13.3568 32.4609 13.4126 32.1881 13.5248C31.9154 13.637 31.6685 13.8033 31.4626 14.0133C31.2474 14.2217 31.0776 14.4718 30.9639 14.7481C30.8501 15.0244 30.7949 15.321 30.8014 15.6194V25.1378C30.8014 25.7735 31.0218 26.3113 31.4626 26.7533C31.6668 26.9665 31.913 27.1355 32.186 27.2498C32.4589 27.3641 32.7528 27.4212 33.049 27.4174C33.6806 27.4174 34.2178 27.1964 34.6586 26.7544C35.0994 26.3113 35.3188 25.7735 35.3188 25.1378V15.6194C35.3188 14.9848 35.0994 14.4501 34.6586 14.0144C34.4491 13.8026 34.1983 13.6355 33.9215 13.5233C33.6448 13.4111 33.3479 13.3551 33.049 13.3608Z" fill="#0A0A0A"/>
</svg>
