<svg width="31" height="38" viewBox="0 0 31 38" fill="none" xmlns="http://www.w3.org/2000/svg">
<path d="M29.3097 12.8147C29.0946 12.9831 25.2861 15.1533 25.2861 19.9756C25.2861 25.5536 30.132 27.528 30.2772 27.5764C30.2549 27.6974 29.5068 30.2802 27.7223 32.9114C26.1306 35.2267 24.468 37.539 21.9386 37.539C19.4101 37.539 18.7595 36.0539 15.8401 36.0539C12.9949 36.0539 11.9829 37.5874 9.66957 37.5874C7.35629 37.5874 5.74243 35.4446 3.88693 32.8134C1.73681 29.7234 0 24.9232 0 20.3671C0 13.0589 4.70072 9.18371 9.32729 9.18371C11.7858 9.18371 13.8352 10.815 15.3781 10.815C16.8479 10.815 19.1389 9.08586 21.9354 9.08586C22.9951 9.08586 26.8025 9.18371 29.3097 12.8147ZM20.6076 5.99163C21.7637 4.60449 22.5818 2.68061 22.5818 0.755664C22.5818 0.488339 22.5606 0.217859 22.5119 0C20.6299 0.0715671 18.3908 1.26716 17.0407 2.84899C15.9811 4.06669 14.9913 5.99163 14.9913 7.94286C14.9913 8.2365 15.0401 8.52907 15.0623 8.62279C15.181 8.64593 15.3749 8.67221 15.5678 8.67221C17.2569 8.67221 19.3805 7.52929 20.6076 5.99163Z" fill="#0A0A0A"/>
</svg>
