<svg width="64" height="64" viewBox="0 0 64 64" fill="none" xmlns="http://www.w3.org/2000/svg">
<path d="M58.7511 16.7494L58.9005 16.6499C58.6 16.0987 58.1502 15.5992 57.7005 15.3485L33.5511 1.44986C33.1511 1.1992 32.6 1.09964 32.0009 1.09964C31.4642 1.0973 30.9342 1.21706 30.4506 1.44986L6.45066 15.3984C5.60089 15.8996 5 17.1495 5 18.1005V45.9495C5 46.5005 5.10134 47.0996 5.45155 47.649L5.35022 47.6988C5.60089 48.0988 5.95111 48.449 6.30134 48.6499L30.4009 62.5984C30.8009 62.849 31.3502 62.9485 31.9511 62.9485C32.5502 62.9485 33.1014 62.7993 33.5014 62.5984L57.5013 48.6481C58.3511 48.1504 58.9502 46.8988 58.9502 45.9495V18.049C59.0017 17.649 58.9502 17.1992 58.7511 16.7494ZM41.0017 32.9984V30.9984H43.5013V28.4987H46.0009V30.9984H48.5005V32.9984H46.0009V35.4996H43.5013V32.9984H41.0017ZM42.6515 25.9992C41.5933 24.1036 40.0482 22.525 38.1759 21.4261C36.3035 20.3273 34.1719 19.7482 32.0009 19.7485C25.2506 19.7485 19.752 25.249 19.752 31.9975C19.752 38.7495 25.2506 44.2499 32.0009 44.2499C34.1655 44.2495 36.2913 43.6753 38.1618 42.586C40.0325 41.4968 41.5809 39.9313 42.6497 38.049L49.1013 41.8499C45.7005 47.7485 39.3005 51.7485 32.0009 51.7485C21.1014 51.7485 12.2498 42.8988 12.2498 31.9975C12.2498 21.1014 21.1031 12.2516 32.0009 12.2516C39.3502 12.2516 45.7502 16.3014 49.1511 22.2499L42.6515 26.001V25.9992ZM57.5013 32.9984H55V35.4996H53V32.9984H50.0009V30.9984H53.0017V28.4987H55.0017V30.9984H57.5013V32.9984Z" fill="#0A0A0A"/>
</svg>
