<svg width="40" height="40" viewBox="0 0 40 40" fill="none" xmlns="http://www.w3.org/2000/svg">
<path d="M2.85718 18.6686H11.4988C11.6341 14.2062 12.4498 10.1395 13.741 7.06634C14.4484 5.38241 15.3245 3.93529 16.3628 2.88915L16.3971 2.85547C9.03411 4.4973 3.42836 10.8752 2.85718 18.6686ZM2.85718 21.2998C3.42836 29.0943 9.03411 35.471 16.3971 37.114L16.3628 37.0792C15.3245 36.033 14.4484 34.586 13.741 32.902C12.4508 29.8288 11.6341 25.7632 11.4988 21.2998H2.85718ZM23.9016 37.114C31.2636 35.471 36.8704 29.0943 37.4415 21.2998H28.7999C28.6646 25.7622 27.8479 29.8288 26.5567 32.902C25.8492 34.586 24.9743 36.033 23.9349 37.0803L23.9006 37.114H23.9016ZM37.4415 18.6686C36.8693 10.8741 31.2636 4.4973 23.9006 2.85547L23.9349 2.88915C24.9743 3.93529 25.8492 5.38347 26.5567 7.0674C27.849 10.1405 28.6646 14.2051 28.7999 18.6686H37.4415ZM22.1007 4.75515C21.3807 4.03001 20.7232 3.75848 20.1488 3.75848C19.5756 3.75848 18.917 4.03001 18.1981 4.7541C17.4729 5.48345 16.7612 6.60537 16.135 8.09561C15.003 10.791 14.2351 14.4945 14.1009 18.6686H26.1967C26.0625 14.4935 25.2957 10.791 24.1638 8.09561C23.5375 6.60537 22.8248 5.48345 22.1007 4.7541V4.75515ZM24.1638 31.8727C25.2957 29.1774 26.0625 25.4748 26.1967 21.2998H14.1009C14.2362 25.4748 15.003 29.1774 16.135 31.8727C16.7612 33.363 17.474 34.4849 18.1981 35.2143C18.917 35.9383 19.5756 36.2099 20.1488 36.2099C20.7232 36.2099 21.3807 35.9383 22.1007 35.2143C22.8248 34.4849 23.5365 33.363 24.1638 31.8727Z" fill="#0A0A0A"/>
</svg>
