<svg width="64" height="64" viewBox="0 0 64 64" fill="none" xmlns="http://www.w3.org/2000/svg">
<g clip-path="url(#clip0_2_190)">
<mask id="mask0_2_190" style="mask-type:luminance" maskUnits="userSpaceOnUse" x="0" y="0" width="64" height="64">
<path d="M64 0H0V64H64V0Z" fill="white"/>
</mask>
<g mask="url(#mask0_2_190)">
<path d="M58.7501 16.7514L58.8995 16.6519C58.599 16.1007 58.1493 15.6011 57.6995 15.3505L33.5501 1.45181C33.1501 1.20115 32.599 1.1016 31.9999 1.1016C31.4633 1.09926 30.9332 1.21901 30.4497 1.45181L6.4497 15.4003C5.59991 15.9016 4.99902 17.1514 4.99902 18.1025V45.9514C4.99902 46.5025 5.10036 47.1016 5.45058 47.6509L5.34925 47.7007C5.59991 48.1007 5.95013 48.4509 6.30036 48.6519L30.3999 62.6003C30.7999 62.8509 31.3493 62.9505 31.9501 62.9505C32.5493 62.9505 33.1004 62.8011 33.5004 62.6003L57.5004 48.65C58.3501 48.1523 58.9493 46.9007 58.9493 45.9514V18.0509C59.0008 17.6509 58.9493 17.2011 58.7501 16.7514ZM31.9999 51.7505C21.1004 51.7505 12.2488 42.9007 12.2488 31.9994C12.2488 21.1034 21.1021 12.2536 31.9999 12.2536C39.3493 12.2536 45.7493 16.3034 49.1501 22.2519L42.6505 26.0029C41.5926 24.1071 40.0476 22.528 38.1752 21.4288C36.3029 20.3297 34.171 19.7503 31.9999 19.7505C25.2497 19.7505 19.751 25.2509 19.751 31.9994C19.751 38.7514 25.2497 44.2519 31.9999 44.2519C34.1645 44.2513 36.2903 43.6772 38.1609 42.588C40.0315 41.4987 41.58 39.9332 42.6488 38.0509L49.1004 41.8519C45.6995 47.7505 39.2995 51.7505 31.9999 51.7505ZM57.5004 31.0003H55.9004L55.4505 33.0003H57.5004V35.5016H54.999L54.3999 38.5007H51.9501L52.5493 35.5016H50.6505L50.0497 38.5007H47.6497L48.2505 35.5016H47.0008V33.0003H48.7501L49.1999 31.0003H46.999V28.5007H49.6497L50.2505 25.5016H52.7004L52.0995 28.5007H53.9999L54.599 25.5016H56.999L56.3999 28.5007H57.5004V31.0003ZM51.1501 33.0003H53.0505L53.5004 31.0003H51.5999L51.1501 33.0003Z" fill="#0A0A0A"/>
</g>
</g>
<defs>
<clipPath id="clip0_2_190">
<rect width="64" height="64" fill="white"/>
</clipPath>
</defs>
</svg>
