<svg width="64" height="64" viewBox="0 0 64 64" fill="none" xmlns="http://www.w3.org/2000/svg">
<g clip-path="url(#clip0_2_163)">
<mask id="mask0_2_163" style="mask-type:luminance" maskUnits="userSpaceOnUse" x="0" y="0" width="64" height="64">
<path d="M64 0H0V64H64V0Z" fill="white"/>
</mask>
<g mask="url(#mask0_2_163)">
<path d="M4.80005 4.80078V59.2008H59.2V4.80078H4.80005ZM33.5744 51.1544C32.7712 52.7864 31.2384 53.8584 29.4624 54.3768C26.7344 55.0024 24.1232 54.6456 22.1824 53.4808C20.8816 52.6824 19.8672 51.4552 19.1792 50.0408L23.3216 47.5048C23.3584 47.5208 23.4656 47.716 23.6112 47.9704C24.1392 48.8552 24.5968 49.4824 25.4912 49.9224C26.3712 50.2232 28.304 50.4152 29.0496 48.8664C29.5056 48.0792 29.3601 45.5464 29.3601 42.7448C29.3601 38.3432 29.3808 33.9592 29.3808 29.6072H34.4752C34.4752 34.3944 34.5024 38.9288 34.4752 43.5992C34.4864 46.4632 34.7344 49.0152 33.5744 51.1544ZM54.7136 49.7144C52.944 55.7736 43.0672 55.9704 39.1216 51.9688C38.288 51.0248 37.7648 50.5336 37.2672 49.4456C39.3632 48.2392 39.3632 48.2392 41.4048 47.06C42.5136 48.7624 43.5392 49.7 45.3824 50.084C47.8832 50.388 50.4 49.5288 49.8368 46.8728C49.256 44.7032 44.7136 44.1752 41.6224 41.8536C38.4848 39.7464 37.7504 34.6248 40.328 31.6984C41.1872 30.6168 42.6528 29.8088 44.192 29.42L45.7968 29.212C48.8784 29.1512 50.8048 29.964 52.2176 31.5432C52.6112 31.9432 52.9328 32.372 53.5328 33.3032C51.8912 34.3496 51.8976 34.34 49.5456 35.8632C49.0432 34.78 48.2096 34.1016 47.3296 33.8056C45.9616 33.3928 44.2368 33.8424 43.88 35.2872C43.7552 35.732 43.7808 36.1464 43.9776 36.8824C44.5328 38.1464 46.392 38.6952 48.0592 39.4616C52.8592 41.4088 54.4816 43.4968 54.88 45.9816C55.264 48.1208 54.7872 49.508 54.7152 49.716L54.7136 49.7144Z" fill="#0A0A0A"/>
</g>
</g>
<defs>
<clipPath id="clip0_2_163">
<rect width="64" height="64" fill="white"/>
</clipPath>
</defs>
</svg>
