<svg width="64" height="64" viewBox="0 0 64 64" fill="none" xmlns="http://www.w3.org/2000/svg">
<path d="M23.8058 49.0585C14.2106 51.7401 29.6458 57.2793 41.8634 52.0441C39.8634 51.2665 38.4266 50.3689 38.4266 50.3689C32.9786 51.3977 30.4506 51.4793 25.505 50.9129C21.4234 50.4473 23.8058 49.0585 23.8058 49.0585ZM40.401 43.8297C33.1786 45.2185 29.0074 45.1737 23.7242 44.6297C19.6378 44.2073 22.313 42.2265 22.313 42.2265C11.745 45.7353 28.1962 49.7145 42.9674 45.3945C41.3978 44.8409 40.401 43.8297 40.401 43.8297ZM46.0602 13.5417C46.0602 13.5417 24.6954 18.8761 34.8986 30.6345C37.9114 34.1033 34.1082 37.2201 34.1082 37.2201C34.1082 37.2201 41.753 33.2745 38.2426 28.3321C34.9626 23.7241 32.4506 21.4361 46.0602 13.5417ZM51.0586 54.1145C51.0586 54.1145 52.8234 55.5689 49.1146 56.6937C42.0634 58.8297 19.7626 59.4729 13.5674 56.7785C11.3434 55.8105 15.5178 54.4665 16.8314 54.1833C18.1994 53.8857 18.9818 53.9401 18.9818 53.9401C16.5066 52.1961 2.97541 57.3641 12.1114 58.8473C37.0218 62.8857 57.5194 57.0313 51.0586 54.1145ZM42.4986 38.9465C43.6954 38.1305 45.3498 37.4201 45.3498 37.4201C45.3498 37.4201 40.6378 38.2633 35.9418 38.6569C30.1962 39.1401 24.0314 39.2345 20.937 38.8201C13.6106 37.8409 24.953 35.1465 24.953 35.1465C24.953 35.1465 20.5466 34.8489 15.1306 37.4681C8.72581 40.5657 30.977 41.9785 42.4986 38.9465ZM45.3018 46.5193C45.244 46.636 45.1648 46.7408 45.0682 46.8281C60.705 42.7161 54.9562 32.3385 47.4794 34.9657C47.0757 35.1157 46.727 35.3846 46.4794 35.7369C46.4794 35.7369 46.8938 35.5705 47.8186 35.3769C51.5978 34.5897 57.0122 40.4361 45.3018 46.5193ZM32.0874 35.0345C29.7818 29.8185 21.9594 25.2585 32.0922 17.2537C44.7274 7.28096 38.2442 0.792969 38.2442 0.792969C40.8586 11.097 29.0186 14.2089 24.7434 20.6265C21.8346 24.9993 26.1722 29.6985 32.0874 35.0345ZM45.7258 60.9065C36.1322 62.7145 24.2986 62.5033 17.2826 61.3449C17.2826 61.3449 18.7194 62.5353 26.105 63.0089C37.3434 63.7289 54.6042 62.6089 55.0122 57.2921C55.0122 57.2921 54.2282 59.3065 45.7258 60.9065Z" fill="#0A0A0A"/>
</svg>
