<svg width="40" height="40" viewBox="0 0 40 40" fill="none" xmlns="http://www.w3.org/2000/svg">
<path d="M11.5357 5.39188C14.9056 7.23261 16.8637 8.72183 17.9374 9.99004C17.3869 12.3233 14.5206 12.4307 13.4719 12.3644C13.6872 12.2592 13.8662 12.1329 13.9297 11.9371C13.6664 11.7393 12.7332 11.916 12.0829 11.5288C12.3327 11.474 12.4502 11.4203 12.5667 11.2246C11.9519 11.0173 11.2891 10.8383 10.8989 10.4931C11.1091 10.4963 11.3057 10.5437 11.5804 10.3416C11.029 10.0258 10.4412 9.77747 9.98444 9.29647C10.2695 9.28911 10.5774 9.29333 10.6659 9.18283C10.1912 8.87568 9.75994 8.50461 9.38408 8.07983C9.78258 8.1314 9.95115 8.08725 10.0469 8.01354C9.66608 7.59997 9.18329 7.25054 8.95444 6.74008C9.24987 6.84848 9.52037 6.89058 9.71601 6.73166C9.58594 6.42119 9.03137 6.23911 8.71094 5.51503C9.02308 5.5466 9.35394 5.58764 9.41944 5.51503C9.27379 4.89092 9.02622 4.5394 8.78272 4.1763C9.44965 4.16578 10.4609 4.1784 10.4152 4.11841L10.0011 3.67323C10.6534 3.488 11.3193 3.7027 11.8031 3.86267C12.0215 3.68165 11.7999 3.45221 11.5347 3.21751C12.0512 3.28702 12.5572 3.421 13.0412 3.6164C13.2825 3.38485 12.8841 3.15331 12.6916 2.92283C13.5468 3.09438 13.9089 3.33644 14.2689 3.5785C14.53 3.31328 14.2844 3.08701 14.1076 2.85652C14.7527 3.10911 15.0856 3.43537 15.4341 3.75848C15.5527 3.59008 15.7358 3.46484 15.5152 3.05543C15.9322 3.30273 16.2927 3.63627 16.5734 4.03422C16.8564 3.84373 16.7419 3.58166 16.744 3.34065C17.2194 3.75111 17.5212 4.18788 17.8916 4.61412C17.9654 4.55623 18.0309 4.36153 18.0892 4.05316C19.2233 5.22139 20.8287 8.15983 18.5012 9.32597C16.5214 7.59468 14.1564 6.33699 11.5347 5.39294L11.5357 5.39188ZM29.4204 5.39188C26.0505 7.23261 24.0924 8.72183 23.0187 9.99004C23.5681 12.3233 26.4354 12.4307 27.4841 12.3644C27.2688 12.2592 27.0899 12.1329 27.0264 11.9371C27.2896 11.7393 28.2229 11.916 28.8732 11.5288C28.6234 11.474 28.5059 11.4203 28.3893 11.2246C29.0042 11.0173 29.6669 10.8383 30.0571 10.4931C29.8469 10.4963 29.6503 10.5437 29.3757 10.3416C29.9271 10.0258 30.5149 9.77747 30.9716 9.29647C30.6866 9.28911 30.3786 9.29333 30.2901 9.18283C30.7649 8.87568 31.1961 8.50461 31.5719 8.07983C31.1735 8.1314 31.0049 8.08725 30.9092 8.01354C31.29 7.59997 31.7727 7.25054 32.0016 6.74008C31.7062 6.84848 31.4356 6.89058 31.2401 6.73166C31.3701 6.42119 31.9247 6.23911 32.2441 5.51503C31.9319 5.5466 31.6021 5.58764 31.5366 5.51503C31.6812 4.89092 31.9288 4.5394 32.1723 4.1763C31.5064 4.16578 30.4952 4.1784 30.5409 4.11841L30.9539 3.67218C30.3016 3.48694 29.6357 3.70164 29.1509 3.86162C28.9345 3.68059 29.1551 3.45116 29.4204 3.21646C28.9039 3.28597 28.3978 3.41995 27.9139 3.61534C27.6725 3.3838 28.0709 3.15226 28.2634 2.92178C27.4082 3.09333 27.0462 3.33539 26.6861 3.57745C26.424 3.31223 26.6706 3.08595 26.8474 2.85547C26.2024 3.10805 25.8694 3.43432 25.5199 3.75743C25.4013 3.58903 25.2182 3.46379 25.4397 3.05438C25.0229 3.30168 24.6623 3.63521 24.3816 4.03317C24.0986 3.84267 24.2131 3.58061 24.211 3.3396C23.7356 3.75005 23.4328 4.18683 23.0634 4.61307C22.9896 4.55518 22.924 4.36048 22.8658 4.05211C21.7317 5.22033 20.1264 8.15883 22.4538 9.3249C24.4337 7.59361 26.7985 6.33594 29.4204 5.39188Z" fill="#0A0A0A"/>
<path d="M24.4009 28.2501C24.4009 28.7712 24.2994 29.2871 24.1023 29.7685C23.9052 30.2499 23.6162 30.6873 23.252 31.0558C22.8878 31.4242 22.4554 31.7165 21.9795 31.9158C21.5037 32.1153 20.9936 32.2179 20.4785 32.2179C19.9634 32.2179 19.4534 32.1153 18.9775 31.9158C18.5016 31.7165 18.0692 31.4242 17.705 31.0558C17.3407 30.6873 17.0518 30.2499 16.8547 29.7685C16.6576 29.2871 16.5562 28.7712 16.5562 28.2501C16.5562 27.1978 16.9694 26.1886 17.705 25.4445C18.4405 24.7004 19.4382 24.2824 20.4785 24.2824C21.5188 24.2824 22.5165 24.7004 23.252 25.4445C23.9876 26.1886 24.4009 27.1978 24.4009 28.2501ZM18.1511 17.6098C18.9647 18.1497 19.4932 19.0517 19.6212 20.1178C19.7492 21.1829 19.4652 22.3258 18.8336 23.2941C18.201 24.2624 17.2709 24.977 16.2482 25.2801C15.2265 25.5832 14.1944 25.4517 13.3818 24.9118C12.5682 24.3729 12.0397 23.472 11.9107 22.4058C11.7837 21.3397 12.0667 20.1968 12.6993 19.2285C13.3319 18.2603 14.262 17.5467 15.2837 17.2425C16.3065 16.9394 17.3375 17.071 18.1511 17.6098ZM22.7237 17.4078C21.9101 17.9466 21.3816 18.8485 21.2526 19.9136C21.1257 20.9798 21.4087 22.1228 22.0412 23.091C22.6737 24.0593 23.6039 24.7739 24.6256 25.077C25.6483 25.3801 26.6794 25.2485 27.493 24.7086C28.3066 24.1698 28.8351 23.2678 28.9631 22.2028C29.091 21.1366 28.807 19.9936 28.1755 19.0253C27.5429 18.0571 26.6128 17.3425 25.59 17.0394C24.5684 16.7363 23.5363 16.8678 22.7237 17.4078ZM9.35132 19.5432C11.1949 19.0401 9.97346 27.3008 8.47318 26.623C6.82205 25.2728 6.29039 21.3197 9.35132 19.5432ZM30.8212 19.5432C28.9777 19.0401 30.1991 27.3008 31.6994 26.623C33.3505 25.2728 33.8822 21.3197 30.8212 19.5432ZM24.5465 13.2579C27.9528 12.7548 30.7869 14.524 30.6725 17.754C30.5612 18.9928 23.2907 13.4421 24.5465 13.2579ZM15.6447 13.2579C12.664 12.7548 10.1836 14.524 10.2835 17.754C10.3813 18.9928 16.7424 13.4421 15.6447 13.2579ZM20.4587 12.3802C18.4695 12.3275 16.5603 13.9178 16.5562 14.8408C16.551 15.9627 18.1292 17.111 20.4722 17.1404C22.8652 17.1583 24.3925 16.2205 24.4009 15.0639C24.4092 13.7525 22.2233 12.3602 20.4587 12.3802ZM20.6034 33.8103C22.2233 33.7366 24.3957 34.3596 24.4009 35.1858C24.4269 35.9899 22.4293 37.8033 20.4962 37.7685C18.4945 37.859 16.5312 36.0425 16.5562 35.4121C16.526 34.4891 18.9938 33.7682 20.6034 33.8103ZM14.4899 28.7627C15.704 30.2214 16.2575 32.7852 15.2442 33.5408C14.286 34.1165 11.9575 33.8797 10.3022 31.5096C9.18689 29.5205 9.33046 27.4955 10.115 26.8998C11.2865 26.1894 13.0967 27.1503 14.4899 28.7627Z" fill="#0A0A0A"/>
<path d="M26.6648 28.1279C25.3913 29.6803 24.6817 32.5113 25.6108 33.4238C26.4994 34.1321 28.8829 34.0332 30.6444 31.4894C31.9241 29.7813 31.4954 26.928 30.765 26.1713C29.6789 25.2978 28.1224 26.4155 26.6648 28.1279Z" fill="#0A0A0A"/>
</svg>
