<svg width="64" height="64" viewBox="0 0 64 64" fill="none" xmlns="http://www.w3.org/2000/svg">
<path fill-rule="evenodd" clip-rule="evenodd" d="M31.5561 4.90335C31.4585 4.96095 31.0441 5.55295 30.6377 6.22015C29.6169 7.89375 29.6057 7.89535 28.2345 6.45375C27.3417 5.51615 27.1257 5.34335 26.8393 5.34495C26.6544 5.34515 26.4728 5.39427 26.3129 5.48735C26.2121 5.56255 25.9241 6.17215 25.6729 6.83935C25.1017 8.36895 25.0745 8.41855 24.7561 8.47935C24.5609 8.51615 24.1849 8.30815 23.2841 7.66015C22.6169 7.18175 21.9641 6.79135 21.8329 6.79135C21.2825 6.79135 21.1289 7.09055 20.8665 8.66175C20.5353 10.657 20.5465 10.6506 18.7449 9.83295C18.0185 9.50335 17.3273 9.23295 17.2121 9.23295C17.0953 9.23295 16.8761 9.35935 16.7225 9.51135C16.4457 9.78815 16.4457 9.78975 16.5209 11.3162L16.5961 12.8442L16.3081 12.9978C16.0521 13.1354 15.8761 13.1178 14.7401 12.8506C13.2585 12.5018 12.9481 12.5114 12.6473 12.9146L12.4265 13.209L12.7209 14.4682L13.0681 15.9498C13.0887 16.1034 13.0485 16.259 12.9561 16.3834C12.8089 16.5754 12.6521 16.5914 11.2825 16.5706C8.96253 16.5338 8.82973 16.7338 9.78813 18.8234C10.0921 19.4874 10.3433 20.089 10.3433 20.161C10.3433 20.545 10.0393 20.6826 8.72893 20.897C7.99773 21.0154 7.36093 21.113 7.31453 21.113C7.26813 21.113 7.13053 21.2122 7.01053 21.3354C6.61053 21.7322 6.72253 22.1066 7.62813 23.3802C8.75293 24.9674 8.75133 24.9738 6.89213 25.6842C4.77693 26.4922 4.73373 26.6922 6.34493 28.2185C7.84413 29.6393 7.84573 29.6186 6.14813 30.6842C4.86173 31.4922 4.84253 31.5113 4.80893 31.9481C4.76893 32.4809 4.77853 32.4906 6.31453 33.4266C7.83293 34.3546 7.83293 34.3818 6.34333 35.7898C4.74013 37.305 4.78973 37.5257 6.90493 38.3241C8.75453 39.0201 8.75773 39.0282 7.62973 40.6154C6.98973 41.5162 6.78653 41.8905 6.78653 42.1673C6.78653 42.6889 7.05853 42.8217 8.67613 43.0921C10.0393 43.3225 10.3433 43.4569 10.3433 43.8329C10.3433 43.9097 10.0937 44.5178 9.78813 45.1818C8.83613 47.2521 8.94493 47.4249 11.1961 47.4249C13.2921 47.4249 13.2361 47.3609 12.7849 49.2489C12.4441 50.6729 12.4393 50.9449 12.7481 51.2537C12.9833 51.4905 13.4281 51.4633 14.8201 51.1305C15.8825 50.8777 16.0681 50.8585 16.3145 50.9913L16.5961 51.1417L16.5209 52.6697C16.4457 54.1961 16.4457 54.1977 16.7225 54.4745C16.8745 54.6265 17.0985 54.7513 17.2185 54.7513C17.3385 54.7513 18.0281 54.4825 18.7513 54.1545C20.5465 53.3401 20.5353 53.3337 20.8665 55.3225C21.1289 56.9017 21.2825 57.1945 21.8425 57.1945C21.9817 57.1945 22.6217 56.8185 23.2649 56.3625C24.3929 55.5561 24.6857 55.4313 24.9865 55.6217C25.0633 55.6697 25.3657 56.3321 25.6553 57.0905C26.0825 58.2057 26.2377 58.4969 26.4761 58.6105C26.9273 58.8265 27.2073 58.6521 28.2697 57.4969C29.5529 56.1001 29.6057 56.1065 30.6537 57.8025C31.8105 59.6745 32.1097 59.6713 33.2953 57.7657C34.3193 56.1225 34.3065 56.1241 35.6873 57.5657C36.6041 58.5209 36.7993 58.6745 37.1097 58.6745C37.3065 58.6745 37.5417 58.5993 37.6329 58.5097C37.7241 58.4185 38.0233 57.7497 38.3001 57.0233C38.5753 56.2969 38.8617 55.6633 38.9353 55.6169C39.2281 55.4313 39.5305 55.5625 40.6585 56.3609C41.3209 56.8329 41.9465 57.1929 42.0953 57.1929C42.6457 57.1929 42.8441 56.8025 43.0745 55.2665C43.2697 53.9577 43.3097 53.8313 43.5673 53.7017C43.8201 53.5737 43.9721 53.6153 45.1625 54.1545C45.8857 54.4825 46.5753 54.7513 46.6953 54.7513C46.8153 54.7513 47.0425 54.6233 47.1993 54.4665L47.4857 54.1817L47.4057 52.7161C47.3321 51.3177 47.3385 51.2425 47.5625 51.0409C47.7913 50.8329 47.8153 50.8329 49.0985 51.1273C50.6553 51.4809 50.9449 51.4905 51.2377 51.1993C51.5225 50.9145 51.5193 50.8521 51.1289 49.2057C50.6905 47.3593 50.6329 47.4249 52.7369 47.4249C54.1721 47.4249 54.3321 47.4041 54.5161 47.2025C54.8201 46.8665 54.7481 46.4793 54.1337 45.1706C53.8249 44.513 53.5737 43.9129 53.5737 43.8393C53.5849 43.4505 53.8905 43.3178 55.3033 43.0874C56.1689 42.9482 56.8153 42.7865 56.9337 42.6809C57.3257 42.3257 57.1817 41.8649 56.2857 40.6089C55.1609 39.0361 55.1657 39.0201 56.9657 38.3577C59.1193 37.5657 59.1817 37.3018 57.5689 35.7706C56.0761 34.353 56.0745 34.361 57.7113 33.3562C59.6889 32.145 59.6905 31.8714 57.7449 30.665C56.0729 29.6282 56.0729 29.6409 57.5737 28.2201C59.1817 26.6921 59.1385 26.4922 57.0233 25.6842C55.1561 24.9706 55.1513 24.953 56.2841 23.3978C56.9593 22.4714 57.1273 22.1642 57.1273 21.8458C57.1273 21.2922 56.8777 21.1674 55.2393 20.9018C53.8713 20.6826 53.5705 20.5498 53.5705 20.1594C53.5705 20.0858 53.8217 19.4906 54.1273 18.8362C54.7257 17.5562 54.8089 17.0442 54.4713 16.737C54.2889 16.5722 54.0457 16.5482 52.7401 16.5706C51.3753 16.593 51.2009 16.5738 51.0121 16.3834C50.8041 16.1754 50.8073 16.1466 51.1305 14.801C51.5273 13.1514 51.5273 13.1114 51.2025 12.8058C50.8729 12.4954 50.6665 12.5018 49.1497 12.857C48.0457 13.1178 47.8617 13.1354 47.6105 13.001L47.3257 12.8474L47.4057 11.3258L47.4841 9.80255L47.1993 9.51775C47.0425 9.36095 46.8201 9.23295 46.7033 9.23295C46.5881 9.23295 45.9033 9.50495 45.1801 9.83775C43.9721 10.393 43.8425 10.4298 43.5817 10.2938C43.3209 10.1578 43.2777 10.0218 43.0553 8.66655C42.7993 7.09695 42.6393 6.79135 42.0825 6.79135C41.9497 6.79135 41.2937 7.18495 40.6249 7.66495C39.5257 8.45375 39.3769 8.52895 39.1049 8.43295C38.8777 8.35295 38.7449 8.18175 38.5849 7.75295L38.0761 6.40255C37.7529 5.54015 37.5721 5.34655 37.0873 5.34655C36.8153 5.34655 36.5705 5.54175 35.6905 6.45535C34.3097 7.88895 34.3033 7.88895 33.2873 6.22335C32.8809 5.55775 32.4553 4.96255 32.3433 4.90335C32.2231 4.8361 32.0875 4.80078 31.9497 4.80078C31.812 4.80078 31.6764 4.8361 31.5561 4.90335ZM32.8169 9.91775C34.0201 10.7738 33.3801 12.7866 31.9049 12.7866C30.4713 12.7866 29.7497 11.0618 30.7721 10.0826C31.0372 9.81624 31.3888 9.65332 31.7633 9.6231C32.1379 9.59288 32.5125 9.69738 32.8169 9.91775ZM31.3017 15.233C32.0921 15.5338 32.4153 15.353 34.2169 13.617L35.5705 12.3146L36.1433 12.3898C37.9417 12.6298 41.5161 14.1978 43.5705 15.649C45.4569 16.9834 47.9657 19.7002 49.0345 21.569L49.2633 21.969L48.2505 24.249C47.6921 25.5018 47.2361 26.6602 47.2361 26.8218C47.2361 27.1946 47.4825 27.7849 47.7177 27.9801C47.8169 28.0617 48.7625 28.5178 49.8185 28.9898L51.7385 29.8506L51.8137 30.3386C51.9097 30.9738 51.9241 32.5354 51.8345 32.9786L51.7657 33.3242H50.6697C49.3993 33.3242 49.4969 33.2122 49.4281 34.7689C49.3801 35.8969 49.1065 36.5209 48.4841 36.9241C47.4729 37.5833 45.8025 37.465 45.0937 36.6826C44.9849 36.5626 44.7737 35.9578 44.6233 35.3386C44.1865 33.5306 43.5977 32.5178 42.4153 31.5306C42.0409 31.2186 41.7353 30.9274 41.7353 30.8826C41.7353 30.8394 42.1465 30.4938 42.6473 30.1162C44.4777 28.7402 45.5273 27.137 45.6441 25.5482C45.8649 22.521 43.4489 19.6986 39.8569 18.7834C39.0057 18.5658 38.6409 18.5594 28.1049 18.5594C22.1257 18.5594 17.2329 18.521 17.2329 18.473C17.2329 18.361 18.5609 17.073 19.3449 16.425C21.4937 14.6506 24.2873 13.2538 27.1785 12.5066L28.1785 12.249L29.5993 13.689C30.3833 14.4794 31.1481 15.1754 31.3017 15.233ZM13.4089 24.497C14.0649 24.9258 14.3321 26.0009 13.9449 26.6473C13.3465 27.6489 11.8329 27.6905 11.2345 26.7242C10.3641 25.3162 12.0393 23.601 13.4089 24.497ZM51.9817 24.5514C53.6937 25.5946 52.3673 28.161 50.5337 27.3514C50.2604 27.234 50.0265 27.0407 49.86 26.7942C49.6933 26.5478 49.6012 26.2586 49.5943 25.9612C49.5874 25.6639 49.666 25.3707 49.821 25.1168C49.9759 24.863 50.2005 24.6588 50.4681 24.529C50.7015 24.4036 50.9629 24.3399 51.2279 24.3438C51.4927 24.3478 51.7522 24.4192 51.9817 24.5514ZM18.4553 30.9402V37.3241H12.8073L12.5833 36.3514C12.1417 34.4394 11.9561 32.4618 12.0681 30.841L12.1449 29.7017L14.0873 28.8313C15.3049 28.2873 16.0873 27.8714 16.1897 27.7162C16.6313 27.0442 16.5897 26.5626 15.9689 25.1946L15.6809 24.5546H18.4553V30.9402ZM34.7177 24.8346C35.9273 25.1482 36.5673 25.7882 36.5673 26.6842C36.5689 27.3434 36.2425 27.7562 35.4313 28.121C34.8585 28.3802 34.7673 28.3866 31.1513 28.4218L27.4553 28.457V24.6666H30.7673C33.3529 24.6666 34.2185 24.7034 34.7193 24.8346H34.7177ZM33.4697 33.9946C34.0697 34.161 34.7785 34.681 35.1417 35.2218C35.5241 35.7898 35.7465 36.529 36.2777 38.977C36.7241 41.0458 37.0105 41.7225 37.8169 42.6025C38.8137 43.6937 38.5833 43.6505 43.5657 43.6505C45.9513 43.6505 47.9033 43.6889 47.9033 43.7353C47.9033 43.8201 46.2601 45.7609 46.1897 45.7609C46.1689 45.7609 45.3097 45.5817 44.2825 45.3609C41.3769 44.7417 41.2713 44.8153 40.6057 47.9257L40.1753 49.9209L39.7881 50.1113C39.1417 50.4297 37.0425 51.0841 35.9545 51.3081C34.1561 51.6777 32.1993 51.8041 30.4793 51.6585C27.5465 51.4105 23.6633 50.2729 23.5129 49.6185C23.4809 49.4793 23.2857 48.5785 23.0793 47.6185C22.8729 46.6585 22.6217 45.7465 22.5225 45.5945C22.0425 44.8617 21.5353 44.8169 19.3113 45.3065C18.7701 45.4327 18.2259 45.5457 17.6793 45.6457C17.5721 45.6457 16.0089 43.8409 16.0089 43.7193C16.0089 43.6809 19.7209 43.6361 24.2601 43.6201L32.5113 43.593L32.5417 40.665C32.5625 38.5962 32.5337 37.6906 32.4441 37.5834C32.3433 37.4634 31.8105 37.4313 29.8857 37.4313H27.4537V33.8794H30.2617C31.8041 33.8794 33.2473 33.9306 33.4681 33.9914L33.4697 33.9946ZM20.7561 47.3097C22.0681 48.1097 21.4377 50.2025 19.8873 50.2009C18.2953 50.2009 17.7049 48.1257 19.0617 47.3001C19.5097 47.0265 20.2985 47.0313 20.7561 47.3097ZM44.7833 47.3977C45.4265 47.8681 45.6409 48.8489 45.2425 49.5017C44.1945 51.2153 41.5785 49.8537 42.4521 48.0489C42.8825 47.1625 44.0249 46.8425 44.7833 47.3977Z" fill="#0A0A0A"/>
</svg>
