<svg width="64" height="64" viewBox="0 0 64 64" fill="none" xmlns="http://www.w3.org/2000/svg">
<path d="M58.8502 14.7368C58.6225 13.5353 58.2333 12.37 57.6934 11.2728C57.1347 10.2204 56.4355 9.24882 55.615 8.38478C54.7814 7.52786 53.804 6.82384 52.727 6.30478C51.6761 5.74868 50.5453 5.35847 49.375 5.14798C48.2183 4.91438 46.9478 4.91438 45.791 4.80078H17.2598C16.3702 4.81678 15.4822 4.89358 14.6022 5.03438C13.7264 5.14247 12.8706 5.37635 12.0614 5.72878C11.831 5.84238 11.4854 5.96238 11.2551 6.07598C10.4871 6.50798 9.75587 7.00878 9.07267 7.57518C8.84067 7.80878 8.60867 7.92238 8.37827 8.15118C7.52187 8.98486 6.8184 9.96235 6.29987 11.0392C5.72606 12.1228 5.33519 13.2938 5.14307 14.5048C4.97157 15.6918 4.85679 16.8862 4.79907 18.084V45.684C4.79907 46.8872 4.91427 48.0856 5.14467 49.2648C5.37347 50.4696 5.76227 51.636 6.29987 52.7288C6.85861 53.7812 7.55781 54.7528 8.37827 55.6168C9.21241 56.4738 10.1904 57.1778 11.2679 57.6968C12.3238 58.2552 13.4534 58.644 14.6198 58.8536C15.7766 59.0872 17.0454 59.0872 18.2038 59.2008H45.7958C46.9974 59.2008 48.1959 59.084 49.3798 58.8536C50.5497 58.6429 51.6797 58.2528 52.7302 57.6968C53.7833 57.1376 54.7554 56.4378 55.6198 55.6168C56.4763 54.7832 57.1797 53.8057 57.6982 52.7288C58.272 51.6457 58.6628 50.4753 58.855 49.2648C59.0265 48.0778 59.1413 46.8834 59.199 45.6856V18.316C59.1974 17.1144 59.0806 15.916 58.8502 14.7368ZM50.6486 49.2648C48.1398 44.3416 43.4998 45.8632 41.1558 46.8552C36.3078 49.6568 29.6422 49.9448 22.9334 47.0696C17.703 44.8472 13.231 41.0312 10.0983 36.1144C11.5542 37.2824 13.1446 38.252 14.8342 39.0024C21.759 42.2488 28.6822 42.0248 33.5574 39.0024C26.6182 33.6744 20.7254 26.7448 16.335 21.0856C15.4652 20.1248 14.692 19.0809 14.0262 17.9688C19.3334 22.8184 27.7734 28.9384 30.7782 30.6712C26.476 26.0532 22.5353 21.1112 18.991 15.8888C24.8718 21.88 31.3785 27.2232 38.399 31.8264C38.7094 32.0008 38.951 32.1464 39.1414 32.284C39.3481 31.7596 39.5244 31.2238 39.6694 30.6792C41.2902 24.788 39.439 18.092 35.3974 12.548C44.7558 18.2024 50.319 28.8248 47.9894 37.7192C47.9286 37.9608 47.8614 38.1752 47.7926 38.4264L47.8758 38.5272C52.503 44.3 51.223 50.42 50.647 49.2632L50.6486 49.2648Z" fill="#0A0A0A"/>
</svg>
