<svg width="664" height="485" viewBox="0 0 664 485" fill="none" xmlns="http://www.w3.org/2000/svg">
<mask id="mask0_115_62" style="mask-type:luminance" maskUnits="userSpaceOnUse" x="0" y="0" width="664" height="485">
<path d="M664 0H0V484.329H664V0Z" fill="white"/>
</mask>
<g mask="url(#mask0_115_62)">
<mask id="mask1_115_62" style="mask-type:luminance" maskUnits="userSpaceOnUse" x="0" y="0" width="664" height="485">
<path d="M664 0H0V484.329H664V0Z" fill="white"/>
</mask>
<g mask="url(#mask1_115_62)">
<path d="M332 115.224V326.141" stroke="#F6F6F6" stroke-opacity="0.4" stroke-width="0.976471" stroke-dasharray="3.91 3.91"/>
<path d="M107.412 326.142H556.588" stroke="#F6F6F6" stroke-opacity="0.4" stroke-width="0.976471" stroke-dasharray="3.91 3.91"/>
<path d="M332 330.047L531.2 130.847" stroke="#F6F6F6" stroke-opacity="0.4" stroke-width="0.976471" stroke-dasharray="3.91 3.91"/>
<path d="M332 330.047L132.8 130.847" stroke="#F6F6F6" stroke-opacity="0.4" stroke-width="0.976471" stroke-dasharray="3.91 3.91"/>
<path d="M464.312 326.141C464.312 253.067 405.074 193.83 332 193.83C258.926 193.83 199.688 253.067 199.688 326.141C199.688 399.216 258.926 458.453 332 458.453C405.074 458.453 464.312 399.216 464.312 326.141Z" fill="#0A0A0A"/>
<path d="M464.312 326.141C464.312 253.067 405.074 193.83 332 193.83C258.926 193.83 199.688 253.067 199.688 326.141C199.688 399.216 258.926 458.453 332 458.453C405.074 458.453 464.312 399.216 464.312 326.141Z" stroke="#F6F6F6" stroke-width="0.976471" stroke-dasharray="3.91 3.91"/>
<path d="M240.608 332V320.638H247.665V322.047H242.239V325.604H247.299V327.013H242.239V330.591H247.737V332H240.608ZM252.882 332.166C252.187 332.166 251.569 331.992 251.029 331.64C250.493 331.285 250.071 330.778 249.765 330.12C249.457 329.462 249.304 328.674 249.304 327.756C249.304 326.843 249.457 326.059 249.765 325.403C250.075 324.745 250.501 324.242 251.041 323.895C251.584 323.543 252.204 323.367 252.899 323.367C253.431 323.367 253.859 323.456 254.18 323.634C254.506 323.812 254.757 324.017 254.935 324.249C255.113 324.483 255.251 324.685 255.351 324.855H255.452V320.638H257.027V332H255.495V330.68H255.351C255.251 330.854 255.109 331.057 254.924 331.29C254.743 331.523 254.488 331.729 254.159 331.906C253.833 332.079 253.408 332.166 252.882 332.166ZM253.204 330.813C253.692 330.813 254.105 330.684 254.442 330.424C254.782 330.166 255.038 329.807 255.212 329.348C255.39 328.886 255.479 328.349 255.479 327.739C255.479 327.137 255.392 326.609 255.218 326.158C255.048 325.703 254.792 325.35 254.453 325.099C254.116 324.847 253.7 324.721 253.204 324.721C252.69 324.721 252.261 324.855 251.917 325.121C251.577 325.383 251.32 325.742 251.146 326.197C250.975 326.652 250.89 327.166 250.89 327.739C250.89 328.32 250.977 328.843 251.151 329.309C251.325 329.772 251.584 330.138 251.928 330.408C252.272 330.678 252.698 330.813 253.204 330.813ZM262.8 335.374C262.134 335.374 261.561 335.287 261.08 335.113C260.603 334.939 260.211 334.71 259.904 334.425C259.597 334.14 259.366 333.831 259.21 333.498L260.542 332.877C260.645 333.036 260.782 333.21 260.953 333.399C261.127 333.587 261.361 333.748 261.657 333.881C261.953 334.015 262.338 334.081 262.811 334.081C263.455 334.081 263.986 333.926 264.404 333.614C264.825 333.304 265.036 332.809 265.036 332.128V330.441H264.93C264.831 330.615 264.688 330.815 264.503 331.04C264.322 331.262 264.067 331.456 263.738 331.623C263.412 331.789 262.985 331.872 262.456 331.872C261.779 331.872 261.171 331.713 260.631 331.396C260.091 331.074 259.663 330.604 259.349 329.987C259.035 329.365 258.878 328.603 258.878 327.701C258.878 326.806 259.031 326.034 259.338 325.387C259.648 324.736 260.074 324.236 260.614 323.889C261.158 323.541 261.777 323.367 262.472 323.367C263.006 323.367 263.434 323.456 263.76 323.634C264.089 323.812 264.344 324.017 264.526 324.249C264.707 324.483 264.845 324.685 264.942 324.855H265.069V323.479H266.601V332.205C266.601 332.934 266.432 333.531 266.096 333.997C265.759 334.468 265.302 334.814 264.725 335.035C264.152 335.261 263.51 335.374 262.8 335.374ZM262.778 330.546C263.266 330.546 263.678 330.432 264.015 330.203C264.355 329.973 264.613 329.646 264.787 329.22C264.963 328.792 265.052 328.279 265.052 327.684C265.052 327.099 264.965 326.586 264.791 326.142C264.622 325.694 264.367 325.347 264.026 325.099C263.69 324.847 263.273 324.721 262.778 324.721C262.263 324.721 261.835 324.853 261.491 325.115C261.15 325.378 260.893 325.732 260.72 326.181C260.55 326.628 260.465 327.129 260.465 327.684C260.465 328.25 260.552 328.748 260.725 329.176C260.899 329.605 261.158 329.942 261.502 330.186C261.845 330.426 262.271 330.546 262.778 330.546ZM272.342 332.172C271.51 332.172 270.792 331.993 270.189 331.634C269.586 331.272 269.122 330.763 268.797 330.108C268.471 329.45 268.309 328.68 268.309 327.801C268.309 326.928 268.471 326.158 268.797 325.492C269.122 324.823 269.577 324.302 270.161 323.928C270.75 323.554 271.435 323.367 272.219 323.367C272.693 323.367 273.152 323.446 273.595 323.601C274.044 323.756 274.447 324.004 274.805 324.344C275.164 324.681 275.447 325.121 275.654 325.664C275.865 326.208 275.97 326.868 275.97 327.645V328.222H269.246V327.007H274.417C274.414 326.563 274.321 326.168 274.139 325.819C273.962 325.469 273.709 325.192 273.38 324.993C273.053 324.79 272.671 324.688 272.231 324.688C271.75 324.688 271.332 324.807 270.977 325.043C270.626 325.276 270.353 325.581 270.161 325.958C269.969 326.336 269.873 326.743 269.873 327.179V328.094C269.873 328.682 269.977 329.182 270.184 329.592C270.391 330.003 270.68 330.316 271.049 330.53C271.423 330.745 271.857 330.852 272.353 330.852C272.678 330.852 272.972 330.806 273.235 330.713C273.498 330.621 273.725 330.482 273.918 330.297C274.11 330.112 274.257 329.882 274.361 329.609L275.854 329.909C275.728 330.364 275.504 330.761 275.182 331.102C274.861 331.442 274.46 331.706 273.978 331.895C273.498 332.079 272.952 332.172 272.342 332.172ZM290.972 320.638V332H289.451L283.576 323.523H283.47V332H281.84V320.638H283.36L289.252 329.132H289.358V320.638H290.972ZM295.692 332.189C295.152 332.189 294.664 332.089 294.227 331.889C293.791 331.686 293.445 331.392 293.19 331.007C292.935 330.619 292.807 330.147 292.807 329.592C292.807 329.108 292.9 328.713 293.085 328.405C293.273 328.094 293.525 327.85 293.84 327.673C294.157 327.492 294.51 327.356 294.899 327.267C295.288 327.176 295.683 327.103 296.086 327.052C296.597 326.992 297.011 326.944 297.329 326.907C297.647 326.866 297.88 326.804 298.028 326.719C298.176 326.63 298.25 326.483 298.25 326.28V326.241C298.25 325.742 298.11 325.355 297.828 325.082C297.551 324.805 297.137 324.666 296.585 324.666C296.008 324.666 295.555 324.791 295.226 325.043C294.897 325.295 294.67 325.572 294.544 325.875L293.062 325.498C293.259 324.981 293.536 324.566 293.895 324.255C294.254 323.941 294.662 323.715 295.121 323.578C295.583 323.438 296.06 323.367 296.552 323.367C296.877 323.367 297.227 323.406 297.601 323.484C297.978 323.558 298.335 323.7 298.672 323.911C299.008 324.118 299.283 324.418 299.498 324.81C299.713 325.202 299.82 325.716 299.82 326.352V332H298.278V330.84H298.211C298.112 331.044 297.954 331.251 297.74 331.462C297.529 331.669 297.253 331.843 296.912 331.984C296.577 332.12 296.169 332.189 295.692 332.189ZM296.014 330.902C296.488 330.902 296.891 330.809 297.224 330.625C297.56 330.436 297.816 330.192 297.99 329.892C298.163 329.588 298.25 329.267 298.25 328.926V327.801C298.191 327.863 298.074 327.921 297.901 327.972C297.731 328.02 297.534 328.063 297.313 328.1C297.094 328.137 296.879 328.169 296.668 328.194C296.458 328.22 296.284 328.243 296.147 328.26C295.822 328.305 295.522 328.376 295.249 328.471C294.975 328.568 294.756 328.709 294.593 328.893C294.431 329.075 294.349 329.317 294.349 329.62C294.349 330.042 294.505 330.362 294.816 330.58C295.13 330.794 295.53 330.902 296.014 330.902ZM305.807 323.479V324.755H301.208V323.479H305.807ZM302.467 321.437H304.037V329.515C304.037 329.847 304.087 330.097 304.187 330.264C304.287 330.43 304.417 330.543 304.575 330.602C304.734 330.662 304.905 330.691 305.086 330.691C305.222 330.691 305.339 330.682 305.435 330.664C305.535 330.645 305.613 330.63 305.668 330.619L305.962 331.94C305.866 331.976 305.731 332.013 305.557 332.05C305.383 332.091 305.167 332.112 304.908 332.112C304.49 332.119 304.094 332.041 303.72 331.878C303.347 331.715 303.044 331.466 302.811 331.129C302.582 330.792 302.467 330.37 302.467 329.859V321.437ZM307.502 332V323.479H309.072V332H307.502ZM308.295 322.136C308.018 322.136 307.778 322.041 307.575 321.853C307.374 321.664 307.275 321.439 307.275 321.176C307.275 320.91 307.374 320.682 307.575 320.494C307.778 320.305 308.018 320.21 308.295 320.21C308.576 320.21 308.818 320.305 309.017 320.494C309.217 320.682 309.317 320.91 309.317 321.176C309.317 321.439 309.217 321.664 309.017 321.853C308.818 322.041 308.576 322.136 308.295 322.136ZM318.378 323.479L315.271 332H313.607L310.5 323.479H312.192L314.395 330.097H314.484L316.692 323.479H318.378ZM323.139 332.172C322.307 332.172 321.589 331.993 320.986 331.634C320.384 331.272 319.919 330.763 319.594 330.108C319.269 329.45 319.106 328.68 319.106 327.801C319.106 326.928 319.269 326.158 319.594 325.492C319.919 324.823 320.374 324.302 320.959 323.928C321.547 323.554 322.233 323.367 323.017 323.367C323.49 323.367 323.949 323.446 324.393 323.601C324.841 323.756 325.244 324.004 325.602 324.344C325.962 324.681 326.244 325.121 326.452 325.664C326.662 326.208 326.767 326.868 326.767 327.645V328.222H320.043V327.007H325.215C325.211 326.563 325.118 326.168 324.936 325.819C324.759 325.469 324.506 325.192 324.177 324.993C323.851 324.79 323.469 324.688 323.028 324.688C322.547 324.688 322.129 324.807 321.774 325.043C321.423 325.276 321.151 325.581 320.959 325.958C320.767 326.336 320.67 326.743 320.67 327.179V328.094C320.67 328.682 320.774 329.182 320.981 329.592C321.188 330.003 321.477 330.316 321.847 330.53C322.22 330.745 322.654 330.852 323.15 330.852C323.475 330.852 323.769 330.806 324.032 330.713C324.295 330.621 324.522 330.482 324.715 330.297C324.907 330.112 325.055 329.882 325.159 329.609L326.651 329.909C326.525 330.364 326.301 330.761 325.98 331.102C325.658 331.442 325.256 331.706 324.776 331.895C324.295 332.079 323.75 332.172 323.139 332.172ZM341.996 324.294H340.36C340.286 323.92 340.156 323.591 339.972 323.307C339.786 323.018 339.559 322.776 339.289 322.579C339.023 322.38 338.723 322.23 338.39 322.13C338.061 322.031 337.713 321.981 337.347 321.981C336.685 321.981 336.089 322.147 335.561 322.48C335.036 322.813 334.619 323.303 334.312 323.95C334.009 324.594 333.857 325.383 333.857 326.319C333.857 327.259 334.011 328.052 334.318 328.699C334.625 329.342 335.041 329.831 335.566 330.164C336.091 330.493 336.685 330.658 337.347 330.658C337.709 330.658 338.055 330.61 338.385 330.513C338.714 330.414 339.012 330.265 339.278 330.07C339.548 329.874 339.778 329.633 339.966 329.348C340.154 329.063 340.286 328.736 340.36 328.366L341.996 328.372C341.904 328.938 341.723 329.454 341.453 329.919C341.187 330.382 340.848 330.782 340.438 331.119C340.03 331.451 339.565 331.708 339.039 331.889C338.514 332.067 337.947 332.156 337.336 332.156C336.356 332.156 335.483 331.921 334.718 331.452C333.952 330.981 333.349 330.31 332.909 329.437C332.469 328.564 332.248 327.525 332.248 326.319C332.248 325.109 332.469 324.07 332.909 323.201C333.352 322.328 333.957 321.657 334.723 321.187C335.489 320.717 336.36 320.483 337.336 320.483C337.932 320.483 338.489 320.568 339.006 320.738C339.528 320.908 339.995 321.158 340.409 321.487C340.824 321.816 341.168 322.215 341.441 322.685C341.716 323.155 341.9 323.692 341.996 324.294ZM347.332 332.172C346.54 332.172 345.848 331.99 345.257 331.623C344.665 331.257 344.204 330.745 343.875 330.086C343.55 329.428 343.387 328.659 343.387 327.778C343.387 326.894 343.55 326.121 343.875 325.459C344.204 324.797 344.665 324.283 345.257 323.917C345.848 323.551 346.54 323.367 347.332 323.367C348.122 323.367 348.815 323.551 349.407 323.917C349.998 324.283 350.457 324.797 350.782 325.459C351.111 326.121 351.277 326.894 351.277 327.778C351.277 328.659 351.111 329.428 350.782 330.086C350.457 330.745 349.998 331.257 349.407 331.623C348.815 331.99 348.122 332.172 347.332 332.172ZM347.337 330.835C347.87 330.835 348.31 330.695 348.658 330.414C349.009 330.132 349.27 329.76 349.44 329.298C349.61 328.836 349.695 328.33 349.695 327.778C349.695 327.227 349.61 326.719 349.44 326.253C349.27 325.786 349.009 325.411 348.658 325.126C348.31 324.842 347.87 324.699 347.337 324.699C346.797 324.699 346.351 324.842 346 325.126C345.652 325.411 345.393 325.786 345.223 326.253C345.053 326.719 344.968 327.227 344.968 327.778C344.968 328.33 345.053 328.836 345.223 329.298C345.393 329.76 345.652 330.132 346 330.414C346.351 330.695 346.797 330.835 347.337 330.835ZM354.553 326.924V332H352.982V323.479H354.492V324.855H354.597C354.797 324.403 355.104 324.042 355.518 323.773C355.936 323.502 356.465 323.367 357.105 323.367C357.686 323.367 358.192 323.488 358.625 323.728C359.062 323.969 359.4 324.327 359.64 324.805C359.884 325.281 360.005 325.873 360.001 326.58V332H358.431V326.752C358.431 326.119 358.266 325.626 357.937 325.271C357.612 324.915 357.163 324.737 356.589 324.737C356.197 324.737 355.847 324.825 355.541 324.999C355.233 325.169 354.991 325.417 354.813 325.742C354.639 326.067 354.553 326.462 354.553 326.924ZM363.669 326.924V332H362.099V323.479H363.607V324.855H363.713C363.913 324.403 364.22 324.042 364.634 323.773C365.052 323.502 365.581 323.367 366.22 323.367C366.801 323.367 367.308 323.488 367.741 323.728C368.177 323.969 368.516 324.327 368.756 324.805C369 325.281 369.121 325.873 369.117 326.58V332H367.546V326.752C367.546 326.119 367.382 325.626 367.053 325.271C366.727 324.915 366.278 324.737 365.705 324.737C365.313 324.737 364.964 324.825 364.656 324.999C364.349 325.169 364.107 325.417 363.93 325.742C363.756 326.067 363.669 326.462 363.669 326.924ZM374.859 332.172C374.027 332.172 373.31 331.993 372.707 331.634C372.104 331.272 371.64 330.763 371.315 330.108C370.989 329.45 370.826 328.68 370.826 327.801C370.826 326.928 370.989 326.158 371.315 325.492C371.64 324.823 372.095 324.302 372.679 323.928C373.268 323.554 373.953 323.367 374.737 323.367C375.211 323.367 375.67 323.446 376.114 323.601C376.561 323.756 376.965 324.004 377.323 324.344C377.682 324.681 377.964 325.121 378.171 325.664C378.382 326.208 378.488 326.868 378.488 327.645V328.222H371.764V327.007H376.934C376.931 326.563 376.839 326.168 376.657 325.819C376.48 325.469 376.226 325.192 375.897 324.993C375.572 324.79 375.189 324.688 374.749 324.688C374.268 324.688 373.85 324.807 373.495 325.043C373.144 325.276 372.871 325.581 372.679 325.958C372.486 326.336 372.391 326.743 372.391 327.179V328.094C372.391 328.682 372.494 329.182 372.701 329.592C372.908 330.003 373.197 330.316 373.567 330.53C373.94 330.745 374.375 330.852 374.871 330.852C375.196 330.852 375.49 330.806 375.753 330.713C376.015 330.621 376.243 330.482 376.435 330.297C376.628 330.112 376.776 329.882 376.88 329.609L378.372 329.909C378.246 330.364 378.022 330.761 377.701 331.102C377.379 331.442 376.977 331.706 376.497 331.895C376.015 332.079 375.47 332.172 374.859 332.172ZM383.75 332.172C382.932 332.172 382.228 331.986 381.636 331.612C381.047 331.235 380.594 330.715 380.277 330.053C379.962 329.391 379.805 328.633 379.805 327.778C379.805 326.913 379.967 326.149 380.293 325.487C380.618 324.821 381.074 324.302 381.657 323.928C382.246 323.554 382.938 323.367 383.732 323.367C384.365 323.367 384.932 323.484 385.43 323.717C385.933 323.95 386.341 324.279 386.651 324.704C386.962 325.126 387.149 325.618 387.212 326.181H385.675C385.582 325.784 385.375 325.44 385.054 325.148C384.731 324.857 384.299 324.71 383.755 324.71C383.281 324.71 382.867 324.834 382.512 325.082C382.157 325.33 381.88 325.681 381.68 326.136C381.484 326.587 381.386 327.122 381.386 327.739C381.386 328.368 381.483 328.914 381.675 329.376C381.87 329.838 382.146 330.196 382.501 330.447C382.857 330.699 383.274 330.824 383.755 330.824C384.081 330.824 384.373 330.767 384.632 330.652C384.894 330.534 385.114 330.366 385.292 330.147C385.473 329.929 385.6 329.665 385.675 329.354H387.212C387.149 329.894 386.967 330.376 386.668 330.802C386.372 331.227 385.976 331.562 385.48 331.806C384.988 332.05 384.412 332.172 383.75 332.172ZM392.763 323.479V324.755H388.164V323.479H392.763ZM389.423 321.437H390.993V329.515C390.993 329.847 391.043 330.097 391.143 330.264C391.242 330.43 391.372 330.543 391.532 330.602C391.691 330.662 391.861 330.691 392.041 330.691C392.179 330.691 392.295 330.682 392.391 330.664C392.491 330.645 392.569 330.63 392.624 330.619L392.918 331.94C392.822 331.976 392.687 332.013 392.513 332.05C392.339 332.091 392.123 332.112 391.864 332.112C391.447 332.119 391.05 332.041 390.677 331.878C390.303 331.715 389.999 331.466 389.767 331.129C389.538 330.792 389.423 330.37 389.423 329.859V321.437ZM394.458 332V323.479H396.028V332H394.458ZM395.252 322.136C394.975 322.136 394.733 322.041 394.53 321.853C394.331 321.664 394.23 321.439 394.23 321.176C394.23 320.91 394.331 320.682 394.53 320.494C394.733 320.305 394.975 320.21 395.252 320.21C395.533 320.21 395.773 320.305 395.973 320.494C396.173 320.682 396.272 320.91 396.272 321.176C396.272 321.439 396.173 321.664 395.973 321.853C395.773 322.041 395.533 322.136 395.252 322.136ZM405.334 323.479L402.228 332H400.563L397.456 323.479H399.148L401.351 330.097H401.44L403.648 323.479H405.334ZM406.755 332V323.479H408.325V332H406.755ZM407.549 322.136C407.271 322.136 407.031 322.041 406.827 321.853C406.628 321.664 406.527 321.439 406.527 321.176C406.527 320.91 406.628 320.682 406.827 320.494C407.031 320.305 407.271 320.21 407.549 320.21C407.83 320.21 408.07 320.305 408.269 320.494C408.469 320.682 408.569 320.91 408.569 321.176C408.569 321.439 408.469 321.664 408.269 321.853C408.07 322.041 407.83 322.136 407.549 322.136ZM414.336 323.479V324.755H409.736V323.479H414.336ZM410.995 321.437H412.566V329.515C412.566 329.847 412.615 330.097 412.715 330.264C412.816 330.43 412.945 330.543 413.104 330.602C413.263 330.662 413.433 330.691 413.614 330.691C413.751 330.691 413.867 330.682 413.964 330.664C414.064 330.645 414.142 330.63 414.196 330.619L414.491 331.94C414.395 331.976 414.26 332.013 414.086 332.05C413.912 332.091 413.695 332.112 413.437 332.112C413.019 332.119 412.623 332.041 412.249 331.878C411.876 331.715 411.573 331.466 411.339 331.129C411.11 330.792 410.995 330.37 410.995 329.859V321.437ZM417.024 335.196C416.784 335.196 416.565 335.178 416.369 335.141C416.174 335.104 416.029 335.063 415.936 335.019L416.319 333.715C416.63 333.796 416.904 333.829 417.14 333.815C417.381 333.8 417.592 333.705 417.773 333.531C417.958 333.358 418.125 333.074 418.272 332.683L418.489 332.095L415.359 323.479H417.046L419.254 330.136H419.343L421.551 323.479H423.238L419.698 333.165C419.536 333.61 419.33 333.983 419.083 334.286C418.835 334.59 418.541 334.817 418.2 334.969C417.86 335.12 417.468 335.196 417.024 335.196Z" fill="#F6F6F6"/>
<path d="M264.25 362.271V353.749H267.246C267.909 353.749 268.457 353.869 268.89 354.11C269.325 354.352 269.649 354.681 269.863 355.097C270.077 355.511 270.184 355.975 270.184 356.491C270.184 357.009 270.077 357.477 269.863 357.893C269.649 358.309 269.325 358.639 268.89 358.883C268.457 359.124 267.91 359.246 267.25 359.246H265.165V358.197H267.151C267.58 358.197 267.927 358.124 268.191 357.976C268.457 357.827 268.651 357.624 268.774 357.369C268.898 357.111 268.96 356.818 268.96 356.491C268.96 356.164 268.898 355.874 268.774 355.621C268.651 355.366 268.457 355.166 268.191 355.022C267.924 354.875 267.573 354.802 267.138 354.802H265.469V362.271H264.25ZM273.966 362.4C273.374 362.4 272.854 362.262 272.411 361.987C271.967 361.713 271.621 361.329 271.375 360.835C271.131 360.341 271.009 359.764 271.009 359.104C271.009 358.441 271.131 357.861 271.375 357.365C271.621 356.868 271.967 356.482 272.411 356.208C272.854 355.933 273.374 355.796 273.966 355.796C274.56 355.796 275.078 355.933 275.519 356.208C275.963 356.482 276.308 356.868 276.555 357.365C276.802 357.861 276.925 358.441 276.925 359.104C276.925 359.764 276.802 360.341 276.555 360.835C276.308 361.329 275.963 361.713 275.519 361.987C275.078 362.262 274.56 362.4 273.966 362.4ZM273.971 361.397C274.371 361.397 274.701 361.291 274.961 361.08C275.225 360.869 275.42 360.591 275.548 360.244C275.675 359.898 275.74 359.517 275.74 359.104C275.74 358.691 275.675 358.309 275.548 357.96C275.42 357.607 275.225 357.326 274.961 357.115C274.701 356.901 274.371 356.795 273.971 356.795C273.566 356.795 273.232 356.901 272.968 357.115C272.705 357.326 272.51 357.607 272.382 357.96C272.257 358.309 272.194 358.691 272.194 359.104C272.194 359.517 272.257 359.898 272.382 360.244C272.51 360.591 272.705 360.869 272.968 361.08C273.232 361.291 273.566 361.397 273.971 361.397ZM279.299 362.271L277.402 355.88H278.621L279.906 360.622H279.969L281.255 355.88H282.478L283.752 360.606H283.814L285.095 355.88H286.315L284.421 362.271H283.231L281.904 357.581H281.812L280.485 362.271H279.299ZM289.814 362.4C289.19 362.4 288.652 362.265 288.199 361.996C287.747 361.724 287.399 361.343 287.155 360.852C286.91 360.358 286.788 359.781 286.788 359.121C286.788 358.466 286.91 357.889 287.155 357.389C287.399 356.887 287.74 356.497 288.179 356.217C288.619 355.936 289.134 355.796 289.723 355.796C290.077 355.796 290.421 355.854 290.754 355.97C291.09 356.088 291.391 356.273 291.657 356.528C291.927 356.781 292.139 357.111 292.298 357.519C292.456 357.926 292.535 358.421 292.535 359.004V359.437H287.491V358.526H291.37C291.37 358.193 291.302 357.896 291.166 357.635C291.03 357.372 290.839 357.165 290.592 357.015C290.348 356.863 290.061 356.787 289.731 356.787C289.37 356.787 289.057 356.875 288.79 357.052C288.527 357.227 288.322 357.457 288.179 357.739C288.034 358.022 287.962 358.328 287.962 358.655V359.337C287.962 359.781 288.04 360.157 288.196 360.465C288.351 360.773 288.567 361.007 288.844 361.168C289.124 361.329 289.45 361.409 289.822 361.409C290.066 361.409 290.287 361.374 290.483 361.305C290.684 361.236 290.854 361.132 290.996 360.993C291.14 360.855 291.251 360.683 291.328 360.477L292.448 360.701C292.353 361.043 292.185 361.341 291.944 361.597C291.703 361.852 291.402 362.05 291.041 362.192C290.681 362.33 290.271 362.4 289.814 362.4ZM293.712 362.271V355.88H294.847V356.883H294.914C295.031 356.547 295.237 356.28 295.534 356.083C295.833 355.884 296.172 355.784 296.549 355.784C296.624 355.784 296.714 355.786 296.82 355.792C296.928 355.795 297.012 355.801 297.074 355.808V356.949C297.03 356.937 296.945 356.924 296.82 356.907C296.695 356.887 296.568 356.878 296.437 356.878C296.14 356.878 295.875 356.94 295.642 357.065C295.409 357.19 295.225 357.362 295.088 357.581C294.956 357.8 294.889 358.05 294.889 358.33V362.271H293.712ZM300.456 362.4C299.832 362.4 299.294 362.265 298.842 361.996C298.39 361.724 298.041 361.343 297.797 360.852C297.553 360.358 297.431 359.781 297.431 359.121C297.431 358.466 297.553 357.889 297.797 357.389C298.041 356.887 298.383 356.497 298.82 356.217C299.262 355.936 299.776 355.796 300.364 355.796C300.72 355.796 301.063 355.854 301.396 355.97C301.732 356.088 302.033 356.273 302.3 356.528C302.569 356.781 302.782 357.111 302.94 357.519C303.098 357.926 303.178 358.421 303.178 359.004V359.437H298.134V358.526H302.013C302.013 358.193 301.944 357.896 301.808 357.635C301.673 357.372 301.481 357.165 301.234 357.015C300.99 356.863 300.703 356.787 300.373 356.787C300.013 356.787 299.699 356.875 299.433 357.052C299.169 357.227 298.965 357.457 298.82 357.739C298.677 358.022 298.605 358.328 298.605 358.655V359.337C298.605 359.781 298.682 360.157 298.838 360.465C298.993 360.773 299.209 361.007 299.486 361.168C299.767 361.329 300.093 361.409 300.465 361.409C300.709 361.409 300.93 361.374 301.126 361.305C301.326 361.236 301.497 361.132 301.638 360.993C301.782 360.855 301.893 360.683 301.971 360.477L303.091 360.701C302.996 361.043 302.828 361.341 302.587 361.597C302.346 361.852 302.045 362.05 301.684 362.192C301.323 362.33 300.914 362.4 300.456 362.4ZM306.75 362.396C306.229 362.396 305.766 362.264 305.361 362C304.959 361.734 304.642 361.354 304.412 360.86C304.182 360.367 304.067 359.776 304.067 359.087C304.067 358.402 304.182 357.814 304.412 357.323C304.645 356.83 304.964 356.452 305.369 356.191C305.777 355.928 306.242 355.796 306.763 355.796C307.165 355.796 307.488 355.863 307.729 355.996C307.97 356.129 308.158 356.283 308.29 356.458C308.426 356.633 308.531 356.784 308.603 356.911H308.677V353.749H309.855V362.271H308.71V361.281H308.603C308.528 361.41 308.42 361.564 308.282 361.738C308.146 361.913 307.954 362.067 307.707 362.2C307.463 362.33 307.145 362.396 306.75 362.396ZM306.992 361.384C307.358 361.384 307.667 361.287 307.92 361.093C308.175 360.899 308.369 360.628 308.502 360.282C308.636 359.935 308.702 359.533 308.702 359.075C308.702 358.623 308.637 358.227 308.507 357.889C308.376 357.547 308.184 357.283 307.928 357.094C307.676 356.903 307.364 356.807 306.992 356.807C306.607 356.807 306.285 356.907 306.027 357.107C305.769 357.306 305.575 357.577 305.444 357.919C305.317 358.259 305.253 358.645 305.253 359.075C305.253 359.51 305.318 359.903 305.448 360.252C305.582 360.599 305.776 360.875 306.031 361.08C306.289 361.283 306.609 361.384 306.992 361.384ZM314.464 362.271V353.749H315.641V356.911H315.716C315.789 356.784 315.891 356.633 316.024 356.458C316.16 356.283 316.349 356.129 316.59 355.996C316.831 355.863 317.153 355.796 317.555 355.796C318.077 355.796 318.54 355.928 318.946 356.191C319.353 356.452 319.672 356.83 319.902 357.323C320.135 357.814 320.252 358.402 320.252 359.087C320.252 359.776 320.137 360.367 319.906 360.86C319.676 361.354 319.359 361.734 318.953 362C318.551 362.264 318.089 362.396 317.568 362.396C317.174 362.396 316.854 362.33 316.607 362.2C316.363 362.067 316.171 361.913 316.033 361.738C315.897 361.564 315.792 361.41 315.716 361.281H315.608V362.271H314.464ZM315.617 359.075C315.617 359.533 315.683 359.935 315.816 360.282C315.949 360.628 316.142 360.899 316.394 361.093C316.65 361.287 316.96 361.384 317.327 361.384C317.709 361.384 318.029 361.283 318.284 361.08C318.541 360.875 318.736 360.599 318.866 360.252C318.999 359.903 319.066 359.51 319.066 359.075C319.066 358.645 319 358.259 318.87 357.919C318.742 357.577 318.55 357.306 318.292 357.107C318.034 356.907 317.712 356.807 317.327 356.807C316.955 356.807 316.641 356.903 316.386 357.094C316.133 357.283 315.942 357.547 315.812 357.889C315.681 358.227 315.617 358.623 315.617 359.075ZM321.949 364.668C321.769 364.668 321.605 364.653 321.458 364.626C321.312 364.599 321.203 364.567 321.134 364.534L321.421 363.557C321.654 363.617 321.859 363.643 322.037 363.631C322.217 363.62 322.375 363.55 322.511 363.419C322.649 363.289 322.774 363.076 322.886 362.782L323.048 362.341L320.701 355.88H321.966L323.618 360.872H323.684L325.344 355.88H326.61L323.955 363.145C323.833 363.478 323.679 363.758 323.493 363.985C323.307 364.213 323.087 364.383 322.831 364.497C322.576 364.61 322.282 364.668 321.949 364.668ZM330.605 362.271V353.749H333.6C334.263 353.749 334.811 353.869 335.245 354.11C335.68 354.352 336.005 354.681 336.218 355.097C336.432 355.511 336.539 355.975 336.539 356.491C336.539 357.009 336.432 357.477 336.218 357.893C336.005 358.309 335.68 358.639 335.245 358.883C334.811 359.124 334.265 359.246 333.605 359.246H331.521V358.197H333.505C333.935 358.197 334.282 358.124 334.546 357.976C334.811 357.827 335.006 357.624 335.128 357.369C335.253 357.111 335.315 356.818 335.315 356.491C335.315 356.164 335.253 355.874 335.128 355.621C335.006 355.366 334.811 355.166 334.546 355.022C334.279 354.875 333.929 354.802 333.493 354.802H331.824V362.271H330.605ZM340.388 362.4C339.764 362.4 339.226 362.265 338.774 361.996C338.322 361.724 337.973 361.343 337.729 360.852C337.485 360.358 337.363 359.781 337.363 359.121C337.363 358.466 337.485 357.889 337.729 357.389C337.973 356.887 338.315 356.497 338.753 356.217C339.194 355.936 339.708 355.796 340.297 355.796C340.652 355.796 340.996 355.854 341.328 355.97C341.664 356.088 341.965 356.273 342.231 356.528C342.501 356.781 342.715 357.111 342.872 357.519C343.03 357.926 343.109 358.421 343.109 359.004V359.437H338.067V358.526H341.944C341.944 358.193 341.877 357.896 341.74 357.635C341.605 357.372 341.413 357.165 341.166 357.015C340.922 356.863 340.635 356.787 340.305 356.787C339.945 356.787 339.631 356.875 339.365 357.052C339.101 357.227 338.897 357.457 338.753 357.739C338.609 358.022 338.536 358.328 338.536 358.655V359.337C338.536 359.781 338.615 360.157 338.77 360.465C338.925 360.773 339.141 361.007 339.419 361.168C339.698 361.329 340.025 361.409 340.397 361.409C340.641 361.409 340.861 361.374 341.058 361.305C341.258 361.236 341.429 361.132 341.57 360.993C341.714 360.855 341.825 360.683 341.903 360.477L343.022 360.701C342.928 361.043 342.76 361.341 342.519 361.597C342.277 361.852 341.977 362.05 341.616 362.192C341.255 362.33 340.846 362.4 340.388 362.4ZM347.02 362.4C346.395 362.4 345.857 362.265 345.405 361.996C344.953 361.724 344.605 361.343 344.361 360.852C344.117 360.358 343.995 359.781 343.995 359.121C343.995 358.466 344.117 357.889 344.361 357.389C344.605 356.887 344.946 356.497 345.384 356.217C345.826 355.936 346.34 355.796 346.928 355.796C347.284 355.796 347.627 355.854 347.96 355.97C348.295 356.088 348.597 356.273 348.863 356.528C349.132 356.781 349.346 357.111 349.504 357.519C349.662 357.926 349.742 358.421 349.742 359.004V359.437H344.698V358.526H348.576C348.576 358.193 348.508 357.896 348.372 357.635C348.236 357.372 348.044 357.165 347.798 357.015C347.554 356.863 347.266 356.787 346.936 356.787C346.576 356.787 346.262 356.875 345.996 357.052C345.732 357.227 345.529 357.457 345.384 357.739C345.24 358.022 345.168 358.328 345.168 358.655V359.337C345.168 359.781 345.246 360.157 345.401 360.465C345.556 360.773 345.773 361.007 346.05 361.168C346.331 361.329 346.656 361.409 347.028 361.409C347.272 361.409 347.493 361.374 347.69 361.305C347.889 361.236 348.06 361.132 348.202 360.993C348.346 360.855 348.456 360.683 348.535 360.477L349.654 360.701C349.56 361.043 349.392 361.341 349.15 361.597C348.909 361.852 348.608 362.05 348.247 362.192C347.886 362.33 347.477 362.4 347.02 362.4ZM350.917 362.271V355.88H352.054V356.883H352.12C352.236 356.547 352.443 356.28 352.74 356.083C353.039 355.884 353.378 355.784 353.755 355.784C353.83 355.784 353.92 355.786 354.025 355.792C354.134 355.795 354.219 355.801 354.279 355.808V356.949C354.235 356.937 354.15 356.924 354.025 356.907C353.901 356.887 353.773 356.878 353.642 356.878C353.346 356.878 353.081 356.94 352.848 357.065C352.615 357.19 352.431 357.362 352.295 357.581C352.161 357.8 352.095 358.05 352.095 358.33V362.271H350.917ZM358.486 358.138V359.175H354.717V358.138H358.486ZM362.853 355.88V356.837H359.408V355.88H362.853ZM360.352 354.348H361.529V360.407C361.529 360.657 361.566 360.845 361.638 360.972C361.713 361.097 361.81 361.182 361.929 361.226C362.048 361.268 362.178 361.288 362.316 361.288C362.419 361.288 362.506 361.281 362.578 361.268C362.653 361.254 362.711 361.242 362.753 361.235L362.97 362.225C362.9 362.253 362.8 362.28 362.67 362.308C362.539 362.339 362.377 362.354 362.183 362.354C361.869 362.36 361.572 362.301 361.292 362.179C361.015 362.057 360.789 361.869 360.614 361.617C360.44 361.365 360.352 361.047 360.352 360.664V354.348ZM366.625 362.4C366.031 362.4 365.512 362.262 365.068 361.987C364.625 361.713 364.279 361.329 364.032 360.835C363.788 360.341 363.666 359.764 363.666 359.104C363.666 358.441 363.788 357.861 364.032 357.365C364.279 356.868 364.625 356.482 365.068 356.208C365.512 355.933 366.031 355.796 366.625 355.796C367.218 355.796 367.736 355.933 368.176 356.208C368.621 356.482 368.966 356.868 369.213 357.365C369.459 357.861 369.583 358.441 369.583 359.104C369.583 359.764 369.459 360.341 369.213 360.835C368.966 361.329 368.621 361.713 368.176 361.987C367.736 362.262 367.218 362.4 366.625 362.4ZM366.629 361.397C367.028 361.397 367.358 361.291 367.619 361.08C367.882 360.869 368.079 360.591 368.206 360.244C368.333 359.898 368.397 359.517 368.397 359.104C368.397 358.691 368.333 358.309 368.206 357.96C368.079 357.607 367.882 357.326 367.619 357.115C367.358 356.901 367.028 356.795 366.629 356.795C366.223 356.795 365.889 356.901 365.626 357.115C365.362 357.326 365.167 357.607 365.039 357.96C364.915 358.309 364.852 358.691 364.852 359.104C364.852 359.517 364.915 359.898 365.039 360.244C365.167 360.591 365.362 360.869 365.626 361.08C365.889 361.291 366.223 361.397 366.629 361.397ZM374.501 358.138V359.175H370.732V358.138H374.501ZM376.047 362.271V353.749H379.042C379.705 353.749 380.253 353.869 380.687 354.11C381.122 354.352 381.447 354.681 381.66 355.097C381.874 355.511 381.981 355.975 381.981 356.491C381.981 357.009 381.874 357.477 381.66 357.893C381.447 358.309 381.122 358.639 380.687 358.883C380.253 359.124 379.707 359.246 379.047 359.246H376.963V358.197H378.947C379.377 358.197 379.724 358.124 379.988 357.976C380.253 357.827 380.448 357.624 380.57 357.369C380.695 357.111 380.757 356.818 380.757 356.491C380.757 356.164 380.695 355.874 380.57 355.621C380.448 355.366 380.253 355.166 379.988 355.022C379.721 354.875 379.371 354.802 378.935 354.802H377.266V362.271H376.047ZM385.83 362.4C385.206 362.4 384.668 362.265 384.216 361.996C383.764 361.724 383.415 361.343 383.171 360.852C382.927 360.358 382.805 359.781 382.805 359.121C382.805 358.466 382.927 357.889 383.171 357.389C383.415 356.887 383.757 356.497 384.195 356.217C384.636 355.936 385.15 355.796 385.739 355.796C386.094 355.796 386.438 355.854 386.77 355.97C387.106 356.088 387.407 356.273 387.673 356.528C387.943 356.781 388.157 357.111 388.314 357.519C388.472 357.926 388.551 358.421 388.551 359.004V359.437H383.509V358.526H387.386C387.386 358.193 387.319 357.896 387.182 357.635C387.047 357.372 386.855 357.165 386.608 357.015C386.364 356.863 386.077 356.787 385.747 356.787C385.387 356.787 385.073 356.875 384.807 357.052C384.543 357.227 384.339 357.457 384.195 357.739C384.051 358.022 383.978 358.328 383.978 358.655V359.337C383.978 359.781 384.057 360.157 384.212 360.465C384.367 360.773 384.583 361.007 384.861 361.168C385.141 361.329 385.467 361.409 385.839 361.409C386.083 361.409 386.303 361.374 386.501 361.305C386.7 361.236 386.871 361.132 387.012 360.993C387.156 360.855 387.267 360.683 387.345 360.477L388.464 360.701C388.37 361.043 388.202 361.341 387.961 361.597C387.719 361.852 387.419 362.05 387.058 362.192C386.697 362.33 386.288 362.4 385.83 362.4ZM392.462 362.4C391.837 362.4 391.299 362.265 390.847 361.996C390.395 361.724 390.047 361.343 389.803 360.852C389.559 360.358 389.437 359.781 389.437 359.121C389.437 358.466 389.559 357.889 389.803 357.389C390.047 356.887 390.388 356.497 390.826 356.217C391.268 355.936 391.782 355.796 392.37 355.796C392.726 355.796 393.069 355.854 393.402 355.97C393.738 356.088 394.039 356.273 394.305 356.528C394.574 356.781 394.788 357.111 394.946 357.519C395.104 357.926 395.184 358.421 395.184 359.004V359.437H390.14V358.526H394.018C394.018 358.193 393.95 357.896 393.814 357.635C393.678 357.372 393.486 357.165 393.24 357.015C392.996 356.863 392.709 356.787 392.378 356.787C392.018 356.787 391.704 356.875 391.438 357.052C391.175 357.227 390.971 357.457 390.826 357.739C390.682 358.022 390.61 358.328 390.61 358.655V359.337C390.61 359.781 390.688 360.157 390.843 360.465C390.998 360.773 391.215 361.007 391.492 361.168C391.773 361.329 392.099 361.409 392.47 361.409C392.714 361.409 392.935 361.374 393.132 361.305C393.331 361.236 393.502 361.132 393.644 360.993C393.788 360.855 393.898 360.683 393.977 360.477L395.096 360.701C395.002 361.043 394.834 361.341 394.593 361.597C394.351 361.852 394.05 362.05 393.689 362.192C393.328 362.33 392.919 362.4 392.462 362.4ZM396.359 362.271V355.88H397.496V356.883H397.562C397.678 356.547 397.885 356.28 398.182 356.083C398.482 355.884 398.82 355.784 399.197 355.784C399.272 355.784 399.363 355.786 399.467 355.792C399.576 355.795 399.661 355.801 399.721 355.808V356.949C399.677 356.937 399.592 356.924 399.467 356.907C399.343 356.887 399.215 356.878 399.084 356.878C398.788 356.878 398.523 356.94 398.291 357.065C398.057 357.19 397.873 357.362 397.737 357.581C397.603 357.8 397.537 358.05 397.537 358.33V362.271H396.359ZM275.198 379.012C274.793 379.012 274.427 378.937 274.099 378.788C273.772 378.635 273.513 378.415 273.322 378.126C273.13 377.835 273.034 377.481 273.034 377.065C273.034 376.701 273.104 376.404 273.243 376.175C273.383 375.941 273.573 375.758 273.808 375.625C274.046 375.489 274.312 375.388 274.603 375.321C274.894 375.252 275.191 375.198 275.494 375.159C275.876 375.114 276.187 375.078 276.425 375.051C276.667 375.02 276.842 374.974 276.95 374.909C277.061 374.843 277.116 374.733 277.116 374.581V374.552C277.116 374.177 277.011 373.886 276.8 373.678C276.592 373.47 276.282 373.365 275.868 373.365C275.435 373.365 275.095 373.461 274.848 373.652C274.602 373.841 274.429 374.049 274.333 374.276L273.226 373.994C273.373 373.606 273.581 373.295 273.85 373.062C274.122 372.826 274.429 372.656 274.774 372.554C275.118 372.448 275.474 372.396 275.843 372.396C276.087 372.396 276.349 372.425 276.629 372.484C276.912 372.539 277.179 372.646 277.428 372.804C277.681 372.959 277.888 373.184 278.048 373.478C278.212 373.772 278.294 374.157 278.294 374.635V378.871H277.137V378.001H277.087C277.012 378.154 276.895 378.309 276.734 378.467C276.576 378.623 276.369 378.753 276.114 378.858C275.861 378.961 275.556 379.012 275.198 379.012ZM275.44 378.047C275.794 378.047 276.097 377.977 276.347 377.839C276.599 377.697 276.79 377.514 276.921 377.29C277.054 377.062 277.12 376.821 277.12 376.565V375.721C277.076 375.765 276.989 375.807 276.859 375.846C276.728 375.885 276.579 375.918 276.413 375.945C276.249 375.973 276.088 375.997 275.93 376.016C275.772 376.036 275.642 376.053 275.539 376.066C275.295 376.099 275.071 376.152 274.865 376.224C274.66 376.297 274.497 376.402 274.375 376.541C274.252 376.677 274.191 376.858 274.191 377.086C274.191 377.405 274.307 377.644 274.541 377.805C274.777 377.966 275.076 378.047 275.44 378.047ZM280.926 375.063V378.871H279.748V372.48H280.88V373.511H280.959C281.106 373.173 281.335 372.902 281.645 372.699C281.959 372.497 282.357 372.396 282.84 372.396C283.275 372.396 283.655 372.487 283.98 372.666C284.307 372.847 284.561 373.116 284.742 373.474C284.921 373.831 285.012 374.275 285.012 374.806V378.871H283.835V374.935C283.835 374.46 283.711 374.09 283.464 373.823C283.219 373.557 282.883 373.424 282.453 373.424C282.156 373.424 281.892 373.487 281.662 373.615C281.434 373.743 281.255 373.929 281.121 374.173C280.991 374.417 280.926 374.714 280.926 375.063ZM288.867 378.996C288.346 378.996 287.883 378.864 287.478 378.6C287.076 378.334 286.759 377.954 286.53 377.46C286.299 376.967 286.184 376.376 286.184 375.687C286.184 375.002 286.299 374.414 286.53 373.923C286.762 373.43 287.081 373.052 287.487 372.791C287.894 372.528 288.359 372.396 288.88 372.396C289.282 372.396 289.605 372.463 289.846 372.596C290.087 372.729 290.274 372.883 290.407 373.058C290.543 373.233 290.647 373.384 290.72 373.511H290.794V370.349H291.972V378.871H290.828V377.881H290.72C290.645 378.01 290.538 378.164 290.399 378.338C290.263 378.513 290.071 378.667 289.825 378.8C289.581 378.93 289.262 378.996 288.867 378.996ZM289.109 377.984C289.476 377.984 289.784 377.887 290.037 377.693C290.292 377.499 290.486 377.228 290.619 376.882C290.753 376.535 290.819 376.133 290.819 375.675C290.819 375.223 290.754 374.827 290.624 374.489C290.493 374.147 290.301 373.883 290.045 373.694C289.793 373.503 289.481 373.407 289.109 373.407C288.724 373.407 288.402 373.507 288.144 373.707C287.886 373.906 287.692 374.177 287.561 374.519C287.434 374.859 287.369 375.245 287.369 375.675C287.369 376.11 287.435 376.503 287.566 376.852C287.698 377.199 287.893 377.475 288.148 377.68C288.405 377.883 288.727 377.984 289.109 377.984ZM296.58 370.349H298.054L300.816 377.09H300.917L303.676 370.349H305.153V378.871H303.996V372.625H303.913L301.366 378.862H300.367L297.817 372.62H297.738V378.871H296.58V370.349ZM309.465 379C308.841 379 308.303 378.865 307.851 378.596C307.399 378.324 307.05 377.943 306.806 377.452C306.562 376.958 306.44 376.381 306.44 375.721C306.44 375.066 306.562 374.489 306.806 373.989C307.05 373.487 307.392 373.097 307.83 372.817C308.271 372.536 308.785 372.396 309.374 372.396C309.729 372.396 310.073 372.454 310.405 372.57C310.741 372.688 311.042 372.873 311.309 373.128C311.578 373.381 311.791 373.711 311.949 374.119C312.107 374.526 312.186 375.021 312.186 375.604V376.037H307.144V375.126H311.021C311.021 374.793 310.954 374.496 310.817 374.235C310.682 373.972 310.49 373.765 310.243 373.615C309.999 373.463 309.712 373.387 309.382 373.387C309.022 373.387 308.708 373.475 308.442 373.652C308.178 373.827 307.974 374.057 307.83 374.339C307.686 374.622 307.614 374.928 307.614 375.255V375.937C307.614 376.381 307.692 376.757 307.847 377.065C308.002 377.373 308.218 377.607 308.495 377.768C308.776 377.929 309.102 378.009 309.474 378.009C309.718 378.009 309.939 377.974 310.135 377.905C310.335 377.836 310.506 377.732 310.648 377.593C310.791 377.455 310.902 377.283 310.98 377.077L312.1 377.301C312.005 377.643 311.837 377.941 311.596 378.197C311.354 378.452 311.054 378.65 310.692 378.792C310.332 378.93 309.923 379 309.465 379ZM318.086 374.006L317.021 374.219C316.97 374.074 316.894 373.936 316.791 373.803C316.689 373.669 316.55 373.56 316.375 373.474C316.201 373.388 315.98 373.345 315.714 373.345C315.35 373.345 315.048 373.427 314.807 373.59C314.565 373.754 314.445 373.962 314.445 374.215C314.445 374.437 314.527 374.614 314.69 374.747C314.854 374.88 315.115 374.99 315.472 375.076L316.471 375.308C317.057 375.444 317.493 375.655 317.778 375.941C318.064 376.224 318.206 376.591 318.206 377.04C318.206 377.42 318.097 377.758 317.877 378.055C317.661 378.349 317.359 378.581 316.97 378.75C316.585 378.917 316.137 379 315.627 379C314.924 379 314.35 378.85 313.904 378.55C313.46 378.251 313.185 377.821 313.08 377.26L314.212 377.06C314.293 377.385 314.451 377.63 314.686 377.793C314.922 377.954 315.231 378.034 315.614 378.034C316.036 378.034 316.372 377.946 316.622 377.768C316.871 377.591 316.997 377.376 316.999 377.123C316.997 376.915 316.92 376.742 316.771 376.603C316.622 376.465 316.391 376.359 316.081 376.287L315.006 376.046C314.41 375.909 313.971 375.694 313.692 375.4C313.412 375.103 313.271 374.729 313.271 374.276C313.271 373.905 313.376 373.578 313.584 373.295C313.792 373.012 314.079 372.791 314.445 372.633C314.814 372.475 315.234 372.396 315.706 372.396C316.382 372.396 316.914 372.543 317.299 372.837C317.688 373.128 317.95 373.518 318.086 374.006ZM320.543 375.063V378.871H319.365V370.349H320.53V373.511H320.609C320.759 373.17 320.986 372.9 321.292 372.699C321.597 372.497 321.999 372.396 322.498 372.396C322.936 372.396 323.319 372.485 323.647 372.662C323.974 372.84 324.229 373.108 324.413 373.465C324.595 373.823 324.687 374.27 324.687 374.806V378.871H323.51V374.935C323.51 374.454 323.387 374.083 323.139 373.819C322.892 373.556 322.55 373.424 322.111 373.424C321.809 373.424 321.538 373.487 321.3 373.615C321.064 373.743 320.878 373.929 320.742 374.173C320.609 374.417 320.543 374.714 320.543 375.063ZM336.027 370.349V378.871H334.89L330.476 372.508H330.397V378.871H329.177V370.349H330.318L334.737 376.723H334.82V370.349H336.027ZM340.346 379C339.721 379 339.183 378.865 338.731 378.596C338.279 378.324 337.931 377.943 337.687 377.452C337.443 376.958 337.321 376.381 337.321 375.721C337.321 375.066 337.443 374.489 337.687 373.989C337.931 373.487 338.272 373.097 338.71 372.817C339.152 372.536 339.666 372.396 340.254 372.396C340.609 372.396 340.953 372.454 341.286 372.57C341.621 372.688 341.923 372.873 342.188 373.128C342.458 373.381 342.672 373.711 342.83 374.119C342.988 374.526 343.067 375.021 343.067 375.604V376.037H338.024V375.126H341.901C341.901 374.793 341.834 374.496 341.698 374.235C341.562 373.972 341.37 373.765 341.123 373.615C340.879 373.463 340.592 373.387 340.262 373.387C339.902 373.387 339.588 373.475 339.322 373.652C339.058 373.827 338.855 374.057 338.71 374.339C338.566 374.622 338.494 374.928 338.494 375.255V375.937C338.494 376.381 338.572 376.757 338.727 377.065C338.882 377.373 339.099 377.607 339.376 377.768C339.656 377.929 339.982 378.009 340.354 378.009C340.598 378.009 340.819 377.974 341.016 377.905C341.215 377.836 341.386 377.732 341.527 377.593C341.672 377.455 341.782 377.283 341.86 377.077L342.979 377.301C342.885 377.643 342.718 377.941 342.476 378.197C342.234 378.452 341.934 378.65 341.573 378.792C341.212 378.93 340.803 379 340.346 379ZM347.172 372.48V373.437H343.727V372.48H347.172ZM344.672 370.948H345.849V377.007C345.849 377.257 345.885 377.445 345.958 377.572C346.033 377.697 346.13 377.782 346.249 377.826C346.368 377.868 346.497 377.888 346.635 377.888C346.739 377.888 346.826 377.882 346.898 377.868C346.973 377.854 347.031 377.842 347.073 377.835L347.289 378.825C347.219 378.853 347.12 378.88 346.99 378.908C346.859 378.939 346.697 378.954 346.503 378.954C346.189 378.96 345.892 378.901 345.612 378.779C345.335 378.657 345.108 378.469 344.934 378.217C344.76 377.965 344.672 377.647 344.672 377.264V370.948ZM349.748 378.871L347.85 372.48H349.07L350.356 377.222H350.418L351.703 372.48H352.927L354.2 377.206H354.263L355.545 372.48H356.763L354.87 378.871H353.681L352.353 374.181H352.261L350.934 378.871H349.748ZM360.197 379C359.603 379 359.083 378.862 358.64 378.587C358.196 378.313 357.851 377.929 357.604 377.435C357.36 376.941 357.238 376.364 357.238 375.704C357.238 375.041 357.36 374.461 357.604 373.965C357.851 373.468 358.196 373.082 358.64 372.808C359.083 372.533 359.603 372.396 360.197 372.396C360.79 372.396 361.307 372.533 361.748 372.808C362.192 373.082 362.537 373.468 362.784 373.965C363.031 374.461 363.154 375.041 363.154 375.704C363.154 376.364 363.031 376.941 362.784 377.435C362.537 377.929 362.192 378.313 361.748 378.587C361.307 378.862 360.79 379 360.197 379ZM360.2 377.997C360.6 377.997 360.93 377.891 361.191 377.68C361.454 377.469 361.65 377.191 361.777 376.844C361.905 376.498 361.969 376.117 361.969 375.704C361.969 375.291 361.905 374.909 361.777 374.56C361.65 374.207 361.454 373.926 361.191 373.715C360.93 373.501 360.6 373.395 360.2 373.395C359.795 373.395 359.461 373.501 359.198 373.715C358.934 373.926 358.739 374.207 358.611 374.56C358.486 374.909 358.423 375.291 358.423 375.704C358.423 376.117 358.486 376.498 358.611 376.844C358.739 377.191 358.934 377.469 359.198 377.68C359.461 377.891 359.795 377.997 360.2 377.997ZM364.332 378.871V372.48H365.468V373.483H365.535C365.651 373.147 365.858 372.88 366.155 372.683C366.454 372.484 366.793 372.384 367.17 372.384C367.245 372.384 367.335 372.386 367.44 372.392C367.548 372.395 367.633 372.401 367.694 372.408V373.549C367.65 373.537 367.565 373.524 367.44 373.507C367.315 373.487 367.188 373.478 367.057 373.478C366.76 373.478 366.496 373.54 366.262 373.665C366.03 373.79 365.845 373.962 365.71 374.181C365.576 374.4 365.51 374.65 365.51 374.93V378.871H364.332ZM369.647 376.661L369.634 375.222H369.846L372.459 372.48H373.874L370.953 375.542H370.786L369.647 376.661ZM368.56 378.871V370.349H369.738V378.871H368.56ZM372.605 378.871L370.258 375.8L371.078 374.98L374.058 378.871H372.605ZM374.814 378.871V372.48H375.992V378.871H374.814ZM375.409 371.472C375.198 371.472 375.018 371.402 374.868 371.26C374.719 371.118 374.643 370.95 374.643 370.752C374.643 370.553 374.719 370.382 374.868 370.241C375.021 370.099 375.201 370.029 375.409 370.029C375.617 370.029 375.797 370.099 375.946 370.241C376.095 370.382 376.171 370.553 376.171 370.752C376.171 370.95 376.095 371.118 375.946 371.26C375.797 371.402 375.617 371.472 375.409 371.472ZM378.641 375.063V378.871H377.463V372.48H378.595V373.511H378.674C378.822 373.173 379.05 372.902 379.361 372.699C379.674 372.497 380.073 372.396 380.555 372.396C380.991 372.396 381.37 372.487 381.696 372.666C382.023 372.847 382.277 373.116 382.457 373.474C382.637 373.831 382.728 374.275 382.728 374.806V378.871H381.55V374.935C381.55 374.46 381.426 374.09 381.179 373.823C380.935 373.557 380.598 373.424 380.168 373.424C379.871 373.424 379.608 373.487 379.377 373.615C379.15 373.743 378.97 373.929 378.836 374.173C378.707 374.417 378.641 374.714 378.641 375.063ZM386.842 381.401C386.342 381.401 385.912 381.335 385.552 381.205C385.193 381.075 384.899 380.903 384.669 380.689C384.441 380.475 384.269 380.244 384.149 379.995L385.143 379.528C385.224 379.647 385.328 379.778 385.456 379.919C385.583 380.061 385.758 380.181 385.98 380.282C386.205 380.384 386.495 380.435 386.849 380.435C387.333 380.435 387.73 380.318 388.044 380.081C388.36 379.848 388.518 379.477 388.518 378.966V377.702H388.439C388.364 377.832 388.257 377.981 388.119 378.151C387.983 378.317 387.792 378.462 387.545 378.587C387.3 378.712 386.98 378.775 386.584 378.775C386.076 378.775 385.619 378.656 385.215 378.418C384.809 378.175 384.489 377.824 384.253 377.36C384.018 376.894 383.899 376.323 383.899 375.645C383.899 374.975 384.015 374.396 384.245 373.91C384.477 373.422 384.797 373.048 385.202 372.787C385.609 372.527 386.074 372.396 386.595 372.396C386.998 372.396 387.321 372.463 387.565 372.596C387.809 372.729 388 372.883 388.135 373.058C388.271 373.233 388.377 373.384 388.452 373.511H388.544V372.48H389.692V379.025C389.692 379.571 389.566 380.019 389.313 380.369C389.061 380.721 388.718 380.981 388.285 381.147C387.855 381.316 387.374 381.401 386.842 381.401ZM386.825 377.781C387.191 377.781 387.501 377.696 387.753 377.527C388.007 377.354 388.202 377.108 388.336 376.786C388.468 376.465 388.535 376.08 388.535 375.634C388.535 375.192 388.469 374.806 388.339 374.473C388.209 374.14 388.016 373.879 387.761 373.691C387.508 373.501 387.196 373.407 386.825 373.407C386.439 373.407 386.117 373.507 385.859 373.707C385.601 373.903 385.407 374.17 385.277 374.506C385.149 374.842 385.085 375.218 385.085 375.634C385.085 376.057 385.15 376.43 385.281 376.753C385.414 377.075 385.608 377.327 385.863 377.51C386.122 377.69 386.442 377.781 386.825 377.781Z" fill="#F6F6F6" fill-opacity="0.5"/>
<path d="M329.76 278.604L330.142 278.223V272.126L329.76 271.745H323.663L323.282 272.126V278.223L323.663 278.604H329.76Z" fill="#F6F6F6"/>
<path d="M318.329 280.509L318.71 280.128H322.331L322.712 280.509V284.13L322.331 284.51H318.71L318.329 284.13V280.509Z" fill="#F6F6F6"/>
<path d="M322.331 270.221L322.712 269.839V266.219L322.331 265.838H318.71L318.329 266.219V269.839L318.71 270.221H322.331Z" fill="#F6F6F6"/>
<path d="M338.145 270.792L337.763 270.411V264.504L337.382 264.124H331.285L330.904 263.743V260.122L330.524 259.741H326.332L325.951 260.122V264.504L326.332 264.885H330.904L331.285 265.267V271.173L331.667 271.555H338.145L338.526 271.935V278.413L338.145 278.794C338.145 278.794 331.877 278.794 331.667 278.794L331.285 279.175V285.082L330.904 285.462H326.332L325.951 285.844V290.227L326.332 290.607H330.524L330.904 290.227V286.606L331.285 286.225H337.382L337.763 285.844V279.938L338.145 279.557H345.004L345.384 279.175V271.173L345.004 270.792H338.145Z" fill="#F6F6F6"/>
<path d="M332 649.841C510.774 649.841 655.7 504.916 655.7 326.141C655.7 147.367 510.774 2.44141 332 2.44141C153.226 2.44141 8.3 147.367 8.3 326.141C8.3 504.916 153.226 649.841 332 649.841Z" stroke="url(#paint0_linear_115_62)" stroke-opacity="0.2" stroke-width="0.976471"/>
<path d="M396.447 93.742C396.447 58.1488 367.593 29.2949 332 29.2949C296.407 29.2949 267.553 58.1488 267.553 93.742C267.553 129.335 296.407 158.189 332 158.189C367.593 158.189 396.447 129.335 396.447 93.742Z" fill="#0A0A0A"/>
<path d="M395.959 93.742C395.959 58.4185 367.324 29.7832 332 29.7832C296.676 29.7832 268.041 58.4185 268.041 93.742C268.041 129.065 296.676 157.7 332 157.7C367.324 157.7 395.959 129.065 395.959 93.742Z" stroke="url(#paint1_linear_115_62)" stroke-opacity="0.6" stroke-width="0.976471" stroke-dasharray="3.91 3.91"/>
<path d="M303.11 99.6V88.2378H304.741V98.191H309.918V99.6H303.11ZM314.079 99.7894C313.539 99.7894 313.051 99.6889 312.614 99.4897C312.178 99.2866 311.832 98.9917 311.577 98.6069C311.321 98.2193 311.194 97.7476 311.194 97.1925C311.194 96.708 311.287 96.3122 311.472 96.0052C311.66 95.6945 311.912 95.4504 312.226 95.2729C312.544 95.0916 312.897 94.9566 313.286 94.8678C313.675 94.7754 314.07 94.7032 314.473 94.6514C314.983 94.5923 315.398 94.5442 315.715 94.5072C316.034 94.4665 316.267 94.4036 316.415 94.3186C316.563 94.2298 316.637 94.0837 316.637 93.8802V93.8415C316.637 93.3421 316.497 92.9556 316.215 92.6819C315.938 92.4045 315.524 92.2657 314.972 92.2657C314.395 92.2657 313.942 92.3915 313.613 92.643C313.284 92.8946 313.056 93.172 312.931 93.4753L311.449 93.098C311.645 92.5802 311.923 92.1659 312.281 91.8552C312.641 91.5408 313.049 91.3151 313.508 91.1783C313.97 91.0377 314.447 90.9675 314.939 90.9675C315.264 90.9675 315.614 91.0064 315.988 91.084C316.365 91.158 316.722 91.3004 317.058 91.5112C317.395 91.7183 317.67 92.0179 317.885 92.4101C318.1 92.8021 318.207 93.3162 318.207 93.9524V99.6H316.665V98.4409H316.598C316.499 98.644 316.341 98.8511 316.126 99.062C315.916 99.269 315.64 99.4438 315.299 99.5834C314.964 99.7211 314.556 99.7894 314.079 99.7894ZM314.401 98.5015C314.875 98.5015 315.278 98.4097 315.611 98.2242C315.947 98.0357 316.203 97.7916 316.376 97.4921C316.55 97.1888 316.637 96.867 316.637 96.5268V95.4005C316.578 95.4633 316.461 95.5207 316.288 95.5725C316.117 95.6205 315.921 95.6631 315.699 95.7001C315.481 95.737 315.266 95.7684 315.055 95.7944C314.844 95.8203 314.671 95.8424 314.534 95.8609C314.209 95.9053 313.909 95.9756 313.636 96.0718C313.362 96.1679 313.143 96.3085 312.98 96.4935C312.818 96.6747 312.736 96.917 312.736 97.2202C312.736 97.6419 312.891 97.9615 313.203 98.1802C313.517 98.395 313.917 98.5015 314.401 98.5015ZM324.194 91.0784V92.3545H319.594V91.0784H324.194ZM320.854 89.0367H322.424V97.1148C322.424 97.4477 322.474 97.6978 322.574 97.8638C322.674 98.0308 322.803 98.1431 322.962 98.2027C323.121 98.2613 323.291 98.2915 323.472 98.2915C323.609 98.2915 323.726 98.2818 323.822 98.2632C323.922 98.2447 324 98.23 324.055 98.2193L324.349 99.5395C324.253 99.5766 324.118 99.6137 323.944 99.6508C323.77 99.6908 323.554 99.7113 323.295 99.7113C322.877 99.7191 322.481 99.641 322.107 99.4779C321.734 99.3159 321.431 99.0659 321.198 98.729C320.969 98.3931 320.854 97.9693 320.854 97.4588V89.0367ZM329.443 99.7728C328.611 99.7728 327.893 99.5932 327.29 99.2338C326.687 98.8716 326.223 98.3628 325.897 97.7086C325.572 97.0501 325.409 96.2808 325.409 95.4005C325.409 94.5275 325.572 93.7582 325.897 93.0924C326.223 92.4229 326.678 91.9014 327.262 91.5278C327.85 91.1543 328.536 90.9675 329.321 90.9675C329.794 90.9675 330.253 91.0451 330.696 91.2005C331.145 91.3559 331.547 91.6037 331.906 91.944C332.265 92.2806 332.548 92.7207 332.755 93.2645C332.966 93.8082 333.071 94.4684 333.071 95.2451V95.8221H326.347V94.6071H331.518C331.514 94.1632 331.422 93.7674 331.24 93.4197C331.063 93.0684 330.81 92.7928 330.481 92.5931C330.154 92.3897 329.772 92.288 329.331 92.288C328.851 92.288 328.433 92.4063 328.078 92.643C327.727 92.876 327.455 93.1812 327.262 93.5585C327.07 93.9358 326.974 94.3426 326.974 94.7791V95.6945C326.974 96.2826 327.078 96.7819 327.285 97.1925C327.492 97.603 327.78 97.9156 328.15 98.1304C328.524 98.3452 328.958 98.4517 329.453 98.4517C329.78 98.4517 330.073 98.4058 330.336 98.313C330.599 98.2212 330.826 98.0826 331.019 97.897C331.211 97.7125 331.358 97.4828 331.462 97.2091L332.955 97.5087C332.829 97.9634 332.605 98.3618 332.283 98.7017C331.962 99.0424 331.561 99.3061 331.079 99.4955C330.599 99.6801 330.053 99.7728 329.443 99.7728ZM336.346 94.5238V99.6H334.776V91.0784H336.286V92.4544H336.391C336.59 92.0032 336.897 91.6426 337.312 91.3726C337.73 91.1025 338.258 90.9675 338.899 90.9675C339.479 90.9675 339.986 91.0877 340.419 91.3281C340.856 91.5685 341.193 91.9273 341.434 92.4045C341.678 92.8816 341.798 93.4734 341.795 94.1799V99.6H340.225V94.3519C340.225 93.7194 340.06 93.2256 339.731 92.8705C339.406 92.5154 338.955 92.3379 338.382 92.3379C337.991 92.3379 337.641 92.4248 337.333 92.5986C337.027 92.7688 336.785 93.0166 336.607 93.3421C336.433 93.6676 336.346 94.0615 336.346 94.5238ZM347.449 99.7728C346.631 99.7728 345.926 99.5854 345.335 99.2123C344.747 98.8345 344.294 98.315 343.975 97.6529C343.661 96.9909 343.504 96.2326 343.504 95.3782C343.504 94.5128 343.667 93.749 343.992 93.0869C344.317 92.4211 344.772 91.9014 345.357 91.5278C345.945 91.1543 346.636 90.9675 347.432 90.9675C348.064 90.9675 348.63 91.084 349.129 91.317C349.633 91.5501 350.039 91.8792 350.35 92.3046C350.661 92.7262 350.848 93.2182 350.91 93.7804H349.373C349.282 93.3847 349.075 93.0407 348.752 92.7484C348.43 92.4562 347.998 92.3102 347.454 92.3102C346.981 92.3102 346.566 92.4341 346.212 92.6819C345.856 92.9296 345.579 93.2811 345.379 93.736C345.183 94.1872 345.085 94.7218 345.085 95.3395C345.085 95.9682 345.181 96.5138 345.374 96.9761C345.57 97.4385 345.845 97.7955 346.2 98.0474C346.555 98.2984 346.973 98.4243 347.454 98.4243C347.78 98.4243 348.072 98.3667 348.331 98.2525C348.593 98.1343 348.814 97.9654 348.991 97.7476C349.172 97.5291 349.3 97.2646 349.373 96.954H350.91C350.848 97.494 350.666 97.9771 350.366 98.4019C350.071 98.8276 349.675 99.1625 349.18 99.4067C348.688 99.6508 348.111 99.7728 347.449 99.7728ZM353.544 102.796C353.303 102.796 353.085 102.777 352.889 102.74C352.692 102.704 352.549 102.663 352.456 102.618L352.839 101.315C353.149 101.397 353.424 101.43 353.66 101.414C353.9 101.4 354.111 101.306 354.293 101.132C354.477 100.958 354.644 100.675 354.792 100.283L355.009 99.6947L351.879 91.0784H353.565L355.774 97.7359H355.863L358.071 91.0784H359.757L356.217 100.766C356.055 101.209 355.849 101.583 355.602 101.886C355.354 102.19 355.06 102.417 354.72 102.568C354.38 102.721 353.987 102.796 353.544 102.796Z" fill="#F6F6F6"/>
<path d="M163.071 326.141C163.071 290.548 134.217 261.694 98.6235 261.694C63.0304 261.694 34.1765 290.548 34.1765 326.141C34.1765 361.735 63.0304 390.588 98.6235 390.588C134.217 390.588 163.071 361.735 163.071 326.141Z" fill="#0A0A0A"/>
<path d="M162.582 326.141C162.582 290.818 133.947 262.183 98.6235 262.183C63.3 262.183 34.6647 290.818 34.6647 326.141C34.6647 361.465 63.3 390.1 98.6235 390.1C133.947 390.1 162.582 361.465 162.582 326.141Z" stroke="url(#paint2_linear_115_62)" stroke-opacity="0.6" stroke-width="0.976471" stroke-dasharray="3.91 3.91"/>
<path d="M70.3134 323.584C70.2541 323.052 70.0045 322.637 69.5643 322.341C69.1242 322.045 68.5749 321.898 67.9165 321.898C67.4394 321.898 67.025 321.974 66.6737 322.125C66.326 322.273 66.0561 322.479 65.8637 322.741C65.6752 323.003 65.5789 323.301 65.5752 323.634C65.5752 323.911 65.6418 324.151 65.7749 324.35C65.9081 324.55 66.0801 324.718 66.2909 324.855C66.5055 324.988 66.7347 325.099 66.9789 325.188C67.223 325.272 67.4541 325.343 67.6724 325.398L68.7931 325.692C69.1409 325.777 69.5033 325.896 69.8806 326.048C70.2579 326.195 70.6093 326.392 70.9347 326.636C71.2639 326.88 71.5303 327.185 71.7337 327.552C71.9408 327.918 72.0443 328.359 72.0443 328.878C72.0443 329.509 71.8798 330.076 71.5506 330.575C71.2251 331.075 70.7498 331.468 70.1248 331.756C69.5033 332.045 68.7488 332.19 67.8611 332.19C67.0214 332.19 66.2946 332.056 65.6806 331.79C65.0666 331.524 64.5839 331.146 64.2325 330.658C63.8848 330.167 63.6926 329.584 63.6556 328.911H65.3034C65.3367 329.329 65.4716 329.674 65.7083 329.948C65.9488 330.218 66.2558 330.419 66.6293 330.553C67.0029 330.686 67.4116 330.752 67.8554 330.752C68.3511 330.752 68.7931 330.675 69.1815 330.519C69.5698 330.361 69.8768 330.138 70.1024 329.854C70.3281 329.569 70.4409 329.236 70.4409 328.855C70.4409 328.511 70.343 328.228 70.1469 328.007C69.9508 327.784 69.6882 327.603 69.359 327.463C69.0298 327.322 68.6637 327.196 68.2605 327.085L66.9012 326.714C65.9951 326.462 65.2776 326.098 64.7486 325.62C64.2234 325.14 63.9608 324.507 63.9608 323.723C63.9608 323.075 64.1364 322.51 64.4877 322.026C64.8428 321.537 65.3219 321.158 65.9248 320.888C66.5277 320.618 67.2044 320.483 67.9553 320.483C68.7136 320.483 69.3849 320.618 69.9693 320.888C70.5537 321.155 71.0162 321.521 71.3564 321.987C71.6967 322.452 71.8742 322.986 71.889 323.584H70.3134ZM73.8202 332V323.479H75.3902V332H73.8202ZM74.6136 322.136C74.3362 322.136 74.0958 322.042 73.8923 321.853C73.6926 321.664 73.5927 321.439 73.5927 321.176C73.5927 320.911 73.6926 320.683 73.8923 320.494C74.0958 320.305 74.3362 320.211 74.6136 320.211C74.8946 320.211 75.135 320.305 75.3347 320.494C75.5344 320.683 75.6343 320.911 75.6343 321.176C75.6343 321.439 75.5344 321.664 75.3347 321.853C75.135 322.042 74.8946 322.136 74.6136 322.136ZM77.4893 332V323.479H78.9982V324.855H79.1037C79.2812 324.389 79.5697 324.025 79.9691 323.762C80.3723 323.499 80.8551 323.368 81.4174 323.368C81.9832 323.368 82.4585 323.499 82.8431 323.762C83.2278 324.025 83.5164 324.389 83.7087 324.855H83.7975C84.0046 324.4 84.3282 324.039 84.7684 323.773C85.2086 323.503 85.7356 323.368 86.3496 323.368C87.1227 323.368 87.7533 323.611 88.2415 324.095C88.7297 324.575 88.9739 325.308 88.9739 326.292V332H87.3982V326.408C87.3982 325.816 87.2372 325.392 86.9155 325.132C86.5973 324.869 86.2164 324.738 85.7725 324.738C85.214 324.738 84.7813 324.908 84.4743 325.249C84.1673 325.585 84.0139 326.017 84.0139 326.542V332H82.4437V326.292C82.4437 325.826 82.2958 325.45 81.9999 325.165C81.7039 324.881 81.3212 324.738 80.8514 324.738C80.5333 324.738 80.2374 324.823 79.9637 324.993C79.6899 325.16 79.4699 325.393 79.3034 325.692C79.1406 325.988 79.0593 326.334 79.0593 326.73V332H77.4893ZM91.0603 335.196V323.479H92.5917V324.855H92.7303C92.8302 324.685 92.9689 324.483 93.1464 324.25C93.324 324.017 93.5736 323.812 93.8955 323.634C94.2209 323.456 94.65 323.368 95.1826 323.368C95.878 323.368 96.4956 323.544 97.0356 323.895C97.5793 324.242 98.0045 324.746 98.3111 325.404C98.6216 326.059 98.7768 326.843 98.7768 327.757C98.7768 328.674 98.6235 329.462 98.3169 330.12C98.0103 330.779 97.5868 331.286 97.0468 331.64C96.5105 331.992 95.8945 332.167 95.1992 332.167C94.6739 332.167 94.2486 332.08 93.9231 331.907C93.5976 331.729 93.3425 331.524 93.1575 331.29C92.9726 331.058 92.8302 330.854 92.7303 330.68H92.6304V335.196H91.0603ZM92.6027 327.74C92.6027 328.35 92.6896 328.886 92.8635 329.349C93.0411 329.807 93.2982 330.167 93.6347 330.425C93.975 330.684 94.3893 330.814 94.8775 330.814C95.3879 330.814 95.8133 330.678 96.1536 330.409C96.4976 330.138 96.7564 329.772 96.9302 329.31C97.1042 328.844 97.1911 328.321 97.1911 327.74C97.1911 327.167 97.106 326.652 96.9358 326.197C96.7657 325.742 96.5085 325.384 96.1646 325.121C95.8206 324.855 95.3916 324.722 94.8775 324.722C94.3856 324.722 93.9695 324.848 93.6292 325.099C93.2926 325.351 93.0373 325.704 92.8635 326.159C92.6896 326.61 92.6027 327.137 92.6027 327.74ZM102.067 320.638V332H100.496V320.638H102.067ZM104.165 332V323.479H105.735V332H104.165ZM104.959 322.136C104.682 322.136 104.441 322.042 104.237 321.853C104.038 321.664 103.937 321.439 103.937 321.176C103.937 320.911 104.038 320.683 104.237 320.494C104.441 320.305 104.682 320.211 104.959 320.211C105.24 320.211 105.48 320.305 105.68 320.494C105.88 320.683 105.979 320.911 105.979 321.176C105.979 321.439 105.88 321.664 105.68 321.853C105.48 322.042 105.24 322.136 104.959 322.136ZM111.391 332.173C110.574 332.173 109.869 331.986 109.277 331.613C108.689 331.235 108.236 330.715 107.918 330.053C107.603 329.391 107.446 328.633 107.446 327.779C107.446 326.913 107.609 326.149 107.934 325.487C108.259 324.821 108.714 324.302 109.299 323.928C109.887 323.555 110.578 323.368 111.374 323.368C112.007 323.368 112.572 323.485 113.071 323.718C113.575 323.95 113.981 324.279 114.292 324.705C114.603 325.127 114.79 325.619 114.852 326.181H113.316C113.224 325.785 113.017 325.441 112.694 325.148C112.373 324.856 111.94 324.711 111.397 324.711C110.923 324.711 110.508 324.834 110.154 325.082C109.798 325.33 109.521 325.682 109.322 326.137C109.125 326.588 109.027 327.122 109.027 327.74C109.027 328.369 109.124 328.915 109.316 329.377C109.512 329.838 109.788 330.196 110.142 330.448C110.497 330.699 110.915 330.825 111.397 330.825C111.722 330.825 112.014 330.767 112.273 330.653C112.535 330.535 112.756 330.366 112.933 330.148C113.114 329.929 113.242 329.665 113.316 329.354H114.852C114.79 329.894 114.608 330.377 114.31 330.802C114.013 331.228 113.617 331.563 113.122 331.807C112.63 332.051 112.053 332.173 111.391 332.173ZM116.493 332V323.479H118.063V332H116.493ZM117.286 322.136C117.009 322.136 116.768 322.042 116.565 321.853C116.365 321.664 116.265 321.439 116.265 321.176C116.265 320.911 116.365 320.683 116.565 320.494C116.768 320.305 117.009 320.211 117.286 320.211C117.567 320.211 117.807 320.305 118.007 320.494C118.207 320.683 118.307 320.911 118.307 321.176C118.307 321.439 118.207 321.664 118.007 321.853C117.807 322.042 117.567 322.136 117.286 322.136ZM124.073 323.479V324.755H119.474V323.479H124.073ZM120.733 321.437H122.303V329.515C122.303 329.848 122.354 330.098 122.453 330.264C122.553 330.431 122.683 330.543 122.842 330.603C123 330.662 123.171 330.692 123.352 330.692C123.488 330.692 123.606 330.682 123.701 330.664C123.801 330.645 123.879 330.63 123.935 330.62L124.229 331.94C124.133 331.977 123.997 332.014 123.823 332.051C123.65 332.091 123.434 332.112 123.174 332.112C122.756 332.119 122.361 332.041 121.988 331.878C121.614 331.716 121.31 331.466 121.077 331.129C120.848 330.793 120.733 330.37 120.733 329.859V321.437ZM126.762 335.196C126.521 335.196 126.303 335.178 126.107 335.141C125.911 335.105 125.766 335.064 125.674 335.019L126.057 333.715C126.368 333.797 126.641 333.83 126.878 333.815C127.119 333.8 127.33 333.706 127.51 333.532C127.696 333.359 127.862 333.075 128.01 332.683L128.226 332.095L125.098 323.479H126.784L128.992 330.136H129.081L131.288 323.479H132.976L129.436 333.166C129.273 333.61 129.068 333.984 128.82 334.286C128.572 334.59 128.278 334.817 127.938 334.969C127.597 335.121 127.206 335.196 126.762 335.196Z" fill="#F6F6F6"/>
<path d="M230.447 164.047C230.447 128.454 201.593 99.6001 166 99.6001C130.407 99.6001 101.553 128.454 101.553 164.047C101.553 199.64 130.407 228.494 166 228.494C201.593 228.494 230.447 199.64 230.447 164.047Z" fill="#0A0A0A"/>
<path d="M229.959 164.047C229.959 128.723 201.324 100.088 166 100.088C130.676 100.088 102.041 128.723 102.041 164.047C102.041 199.371 130.676 228.006 166 228.006C201.324 228.006 229.959 199.371 229.959 164.047Z" stroke="url(#paint3_linear_115_62)" stroke-opacity="0.6" stroke-width="0.976471" stroke-dasharray="3.91 3.91"/>
<path d="M135.72 161.49C135.66 160.957 135.41 160.543 134.971 160.247C134.53 159.951 133.981 159.803 133.322 159.803C132.846 159.803 132.431 159.879 132.08 160.03C131.732 160.179 131.462 160.384 131.27 160.646C131.081 160.909 130.985 161.207 130.982 161.54C130.982 161.817 131.048 162.055 131.181 162.255C131.314 162.455 131.487 162.624 131.697 162.76C131.911 162.893 132.141 163.004 132.385 163.093C132.629 163.178 132.861 163.249 133.078 163.304L134.199 163.598C134.547 163.683 134.909 163.801 135.287 163.953C135.664 164.101 136.016 164.297 136.341 164.541C136.67 164.786 136.936 165.09 137.139 165.456C137.346 165.823 137.451 166.265 137.451 166.782C137.451 167.415 137.286 167.981 136.957 168.48C136.631 168.979 136.156 169.374 135.531 169.662C134.909 169.95 134.155 170.095 133.267 170.095C132.428 170.095 131.7 169.962 131.086 169.695C130.473 169.429 129.99 169.052 129.639 168.563C129.291 168.071 129.098 167.489 129.062 166.816H130.709C130.743 167.234 130.877 167.579 131.115 167.854C131.355 168.123 131.661 168.325 132.035 168.458C132.409 168.591 132.818 168.658 133.262 168.658C133.757 168.658 134.199 168.58 134.588 168.425C134.976 168.266 135.283 168.044 135.509 167.759C135.734 167.474 135.847 167.142 135.847 166.76C135.847 166.416 135.749 166.133 135.553 165.911C135.357 165.69 135.095 165.508 134.766 165.367C134.436 165.227 134.069 165.102 133.667 164.991L132.307 164.619C131.401 164.368 130.684 164.003 130.155 163.526C129.629 163.044 129.367 162.413 129.367 161.629C129.367 160.981 129.543 160.415 129.894 159.93C130.249 159.442 130.728 159.063 131.33 158.793C131.934 158.523 132.611 158.389 133.361 158.389C134.12 158.389 134.791 158.523 135.376 158.793C135.96 159.059 136.422 159.426 136.763 159.891C137.102 160.358 137.28 160.89 137.295 161.49H135.72ZM142.782 170.078C141.965 170.078 141.26 169.891 140.668 169.517C140.081 169.141 139.627 168.621 139.309 167.959C138.995 167.297 138.838 166.538 138.838 165.684C138.838 164.819 139.001 164.055 139.326 163.393C139.652 162.727 140.107 162.208 140.691 161.834C141.279 161.46 141.971 161.273 142.766 161.273C143.399 161.273 143.964 161.389 144.464 161.623C144.967 161.856 145.374 162.185 145.685 162.61C145.995 163.032 146.182 163.524 146.245 164.086H144.708C144.615 163.69 144.408 163.346 144.086 163.054C143.765 162.762 143.332 162.616 142.788 162.616C142.315 162.616 141.901 162.74 141.545 162.988C141.19 163.236 140.913 163.586 140.713 164.041C140.517 164.493 140.419 165.028 140.419 165.645C140.419 166.274 140.515 166.819 140.707 167.281C140.904 167.744 141.179 168.102 141.535 168.353C141.889 168.604 142.307 168.729 142.788 168.729C143.113 168.729 143.405 168.673 143.665 168.558C143.927 168.439 144.148 168.272 144.325 168.053C144.506 167.835 144.634 167.57 144.708 167.26H146.245C146.182 167.8 146.001 168.282 145.701 168.708C145.405 169.133 145.009 169.468 144.514 169.712C144.022 169.956 143.445 170.078 142.782 170.078ZM150.37 170.095C149.83 170.095 149.341 169.995 148.905 169.795C148.468 169.592 148.123 169.298 147.868 168.913C147.613 168.524 147.485 168.053 147.485 167.498C147.485 167.014 147.578 166.618 147.762 166.311C147.951 166 148.203 165.756 148.517 165.578C148.835 165.398 149.188 165.262 149.577 165.173C149.965 165.081 150.361 165.009 150.764 164.957C151.275 164.898 151.689 164.85 152.007 164.813C152.325 164.772 152.558 164.709 152.705 164.624C152.854 164.536 152.928 164.389 152.928 164.186V164.147C152.928 163.648 152.787 163.261 152.506 162.988C152.229 162.711 151.815 162.572 151.263 162.572C150.686 162.572 150.233 162.697 149.904 162.949C149.575 163.201 149.347 163.478 149.221 163.781L147.74 163.404C147.936 162.886 148.214 162.471 148.573 162.161C148.931 161.846 149.339 161.621 149.798 161.484C150.261 161.343 150.738 161.273 151.23 161.273C151.555 161.273 151.905 161.312 152.279 161.389C152.656 161.464 153.013 161.606 153.35 161.817C153.686 162.024 153.961 162.324 154.176 162.715C154.391 163.108 154.498 163.622 154.498 164.258V169.906H152.955V168.746H152.889C152.789 168.95 152.632 169.157 152.417 169.368C152.206 169.575 151.931 169.749 151.59 169.89C151.254 170.026 150.847 170.095 150.37 170.095ZM150.692 168.808C151.165 168.808 151.569 168.715 151.902 168.53C152.238 168.342 152.493 168.098 152.667 167.798C152.841 167.494 152.928 167.173 152.928 166.832V165.706C152.868 165.769 152.752 165.826 152.578 165.878C152.409 165.926 152.212 165.969 151.991 166.006C151.772 166.043 151.557 166.074 151.346 166.1C151.136 166.126 150.961 166.149 150.825 166.166C150.5 166.211 150.2 166.281 149.926 166.377C149.653 166.474 149.434 166.614 149.271 166.799C149.109 166.981 149.027 167.223 149.027 167.525C149.027 167.947 149.183 168.268 149.494 168.485C149.808 168.7 150.208 168.808 150.692 168.808ZM158.143 158.544V169.906H156.573V158.544H158.143ZM162.728 170.095C162.188 170.095 161.7 169.995 161.263 169.795C160.827 169.592 160.481 169.298 160.226 168.913C159.97 168.524 159.842 168.053 159.842 167.498C159.842 167.014 159.935 166.618 160.121 166.311C160.309 166 160.56 165.756 160.875 165.578C161.193 165.398 161.546 165.262 161.935 165.173C162.323 165.081 162.719 165.009 163.121 164.957C163.632 164.898 164.046 164.85 164.364 164.813C164.683 164.772 164.916 164.709 165.064 164.624C165.212 164.536 165.285 164.389 165.285 164.186V164.147C165.285 163.648 165.145 163.261 164.864 162.988C164.586 162.711 164.172 162.572 163.621 162.572C163.044 162.572 162.591 162.697 162.262 162.949C161.933 163.201 161.705 163.478 161.58 163.781L160.098 163.404C160.294 162.886 160.572 162.471 160.93 162.161C161.29 161.846 161.698 161.621 162.157 161.484C162.618 161.343 163.096 161.273 163.588 161.273C163.913 161.273 164.263 161.312 164.637 161.389C165.014 161.464 165.37 161.606 165.707 161.817C166.044 162.024 166.319 162.324 166.534 162.715C166.748 163.108 166.855 163.622 166.855 164.258V169.906H165.314V168.746H165.247C165.147 168.95 164.989 169.157 164.776 169.368C164.565 169.575 164.289 169.749 163.948 169.89C163.612 170.026 163.205 170.095 162.728 170.095ZM163.05 168.808C163.523 168.808 163.926 168.715 164.259 168.53C164.596 168.342 164.851 168.098 165.025 167.798C165.198 167.494 165.285 167.173 165.285 166.832V165.706C165.227 165.769 165.109 165.826 164.936 165.878C164.766 165.926 164.569 165.969 164.348 166.006C164.13 166.043 163.915 166.074 163.704 166.1C163.493 166.126 163.32 166.149 163.183 166.166C162.858 166.211 162.558 166.281 162.284 166.377C162.01 166.474 161.792 166.614 161.629 166.799C161.466 166.981 161.385 167.223 161.385 167.525C161.385 167.947 161.54 168.268 161.851 168.485C162.165 168.7 162.565 168.808 163.05 168.808ZM169.075 169.906V158.544H170.645V162.76H170.746C170.845 162.59 170.984 162.388 171.162 162.155C171.339 161.922 171.588 161.717 171.911 161.54C172.236 161.362 172.665 161.273 173.198 161.273C173.893 161.273 174.511 161.449 175.051 161.8C175.595 162.148 176.02 162.651 176.327 163.309C176.638 163.964 176.793 164.748 176.793 165.661C176.793 166.579 176.64 167.367 176.332 168.025C176.025 168.684 175.602 169.19 175.062 169.546C174.526 169.897 173.909 170.072 173.214 170.072C172.689 170.072 172.264 169.985 171.938 169.811C171.613 169.635 171.358 169.429 171.172 169.196C170.988 168.963 170.845 168.76 170.746 168.586H170.607V169.906H169.075ZM170.618 165.645C170.618 166.255 170.705 166.792 170.878 167.254C171.056 167.713 171.313 168.071 171.65 168.33C171.99 168.59 172.405 168.719 172.893 168.719C173.403 168.719 173.828 168.584 174.168 168.314C174.513 168.044 174.772 167.678 174.945 167.215C175.119 166.749 175.206 166.226 175.206 165.645C175.206 165.072 175.121 164.558 174.95 164.103C174.78 163.648 174.524 163.289 174.18 163.027C173.835 162.76 173.407 162.627 172.893 162.627C172.401 162.627 171.985 162.753 171.644 163.004C171.307 163.255 171.052 163.609 170.878 164.064C170.705 164.515 170.618 165.042 170.618 165.645ZM178.505 169.906V161.384H180.075V169.906H178.505ZM179.299 160.042C179.02 160.042 178.78 159.947 178.577 159.759C178.377 159.57 178.277 159.345 178.277 159.082C178.277 158.815 178.377 158.588 178.577 158.399C178.78 158.211 179.02 158.116 179.299 158.116C179.579 158.116 179.82 158.211 180.019 158.399C180.219 158.588 180.319 158.815 180.319 159.082C180.319 159.345 180.219 159.57 180.019 159.759C179.82 159.947 179.579 160.042 179.299 160.042ZM183.744 158.544V169.906H182.174V158.544H183.744ZM185.843 169.906V161.384H187.413V169.906H185.843ZM186.637 160.042C186.358 160.042 186.118 159.947 185.915 159.759C185.715 159.57 185.615 159.345 185.615 159.082C185.615 158.815 185.715 158.588 185.915 158.399C186.118 158.211 186.358 158.116 186.637 158.116C186.917 158.116 187.158 158.211 187.357 158.399C187.558 158.588 187.657 158.815 187.657 159.082C187.657 159.345 187.558 159.57 187.357 159.759C187.158 159.947 186.917 160.042 186.637 160.042ZM193.423 161.384V162.661H188.824V161.384H193.423ZM190.084 159.343H191.654V167.421C191.654 167.753 191.704 168.003 191.803 168.17C191.903 168.336 192.033 168.449 192.192 168.508C192.351 168.567 192.521 168.597 192.703 168.597C192.839 168.597 192.955 168.588 193.052 168.569C193.152 168.551 193.229 168.536 193.285 168.524L193.578 169.846C193.483 169.882 193.348 169.919 193.174 169.956C193 169.997 192.784 170.017 192.525 170.017C192.107 170.024 191.71 169.947 191.337 169.784C190.963 169.621 190.661 169.372 190.427 169.035C190.198 168.698 190.084 168.275 190.084 167.765V159.343ZM196.112 173.102C195.871 173.102 195.653 173.084 195.457 173.046C195.261 173.009 195.117 172.968 195.025 172.924L195.407 171.621C195.718 171.702 195.991 171.735 196.229 171.72C196.469 171.706 196.68 171.611 196.861 171.437C197.046 171.263 197.212 170.98 197.36 170.589L197.577 170.001L194.448 161.384H196.134L198.343 168.042H198.432L200.639 161.384H202.326L198.786 171.071C198.623 171.515 198.418 171.888 198.17 172.192C197.923 172.496 197.629 172.722 197.288 172.875C196.948 173.026 196.556 173.102 196.112 173.102Z" fill="#F6F6F6"/>
<path d="M629.824 326.141C629.824 290.548 600.97 261.694 565.377 261.694C529.783 261.694 500.929 290.548 500.929 326.141C500.929 361.735 529.783 390.588 565.377 390.588C600.97 390.588 629.824 361.735 629.824 326.141Z" fill="#0A0A0A"/>
<path d="M629.335 326.141C629.335 290.818 600.7 262.183 565.376 262.183C530.053 262.183 501.418 290.818 501.418 326.141C501.418 361.465 530.053 390.1 565.376 390.1C600.7 390.1 629.335 361.465 629.335 326.141Z" stroke="url(#paint4_linear_115_62)" stroke-opacity="0.6" stroke-width="0.976471" stroke-dasharray="3.91 3.91"/>
<path d="M536.675 320.638H538.645L542.323 329.62H542.456L546.134 320.638H548.104V332H546.562V323.678H546.45L543.055 331.99H541.723L538.328 323.673H538.217V332H536.675V320.638ZM553.902 332.172C553.11 332.172 552.419 331.99 551.827 331.623C551.235 331.257 550.774 330.745 550.445 330.086C550.12 329.428 549.957 328.659 549.957 327.778C549.957 326.894 550.12 326.121 550.445 325.459C550.774 324.797 551.235 324.283 551.827 323.917C552.419 323.551 553.11 323.367 553.902 323.367C554.694 323.367 555.385 323.551 555.977 323.917C556.569 324.283 557.028 324.797 557.353 325.459C557.682 326.121 557.847 326.894 557.847 327.778C557.847 328.659 557.682 329.428 557.353 330.086C557.028 330.745 556.569 331.257 555.977 331.623C555.385 331.99 554.694 332.172 553.902 332.172ZM553.908 330.835C554.44 330.835 554.88 330.695 555.228 330.414C555.58 330.132 555.84 329.76 556.01 329.298C556.18 328.836 556.265 328.33 556.265 327.778C556.265 327.227 556.18 326.719 556.01 326.253C555.84 325.786 555.58 325.411 555.228 325.126C554.88 324.842 554.44 324.699 553.908 324.699C553.368 324.699 552.922 324.842 552.57 325.126C552.222 325.411 551.964 325.786 551.794 326.253C551.624 326.719 551.539 327.227 551.539 327.778C551.539 328.33 551.624 328.836 551.794 329.298C551.964 329.76 552.222 330.132 552.57 330.414C552.922 330.695 553.368 330.835 553.908 330.835ZM559.697 332V320.638H561.267V324.855H561.367C561.468 324.685 561.606 324.483 561.783 324.249C561.961 324.017 562.211 323.812 562.532 323.634C562.858 323.456 563.287 323.367 563.82 323.367C564.515 323.367 565.132 323.543 565.672 323.895C566.216 324.242 566.642 324.745 566.949 325.403C567.259 326.059 567.414 326.843 567.414 327.756C567.414 328.674 567.261 329.462 566.954 330.12C566.647 330.778 566.224 331.285 565.684 331.64C565.148 331.992 564.532 332.166 563.837 332.166C563.311 332.166 562.886 332.079 562.56 331.906C562.235 331.729 561.979 331.523 561.795 331.29C561.609 331.057 561.468 330.854 561.367 330.68H561.228V332H559.697ZM561.24 327.739C561.24 328.349 561.327 328.886 561.501 329.348C561.678 329.807 561.935 330.166 562.271 330.424C562.612 330.684 563.026 330.813 563.514 330.813C564.025 330.813 564.45 330.678 564.791 330.408C565.134 330.138 565.393 329.772 565.567 329.309C565.741 328.843 565.828 328.32 565.828 327.739C565.828 327.166 565.743 326.652 565.573 326.197C565.403 325.742 565.146 325.383 564.801 325.121C564.458 324.855 564.029 324.721 563.514 324.721C563.022 324.721 562.606 324.847 562.266 325.099C561.93 325.35 561.675 325.703 561.501 326.158C561.327 326.609 561.24 327.137 561.24 327.739ZM569.127 332V323.479H570.697V332H569.127ZM569.92 322.136C569.643 322.136 569.402 322.041 569.199 321.853C568.999 321.664 568.9 321.439 568.9 321.176C568.9 320.91 568.999 320.682 569.199 320.494C569.402 320.305 569.643 320.21 569.92 320.21C570.201 320.21 570.441 320.305 570.642 320.494C570.841 320.682 570.941 320.91 570.941 321.176C570.941 321.439 570.841 321.664 570.642 321.853C570.441 322.041 570.201 322.136 569.92 322.136ZM574.366 320.638V332H572.796V320.638H574.366ZM576.465 332V323.479H578.035V332H576.465ZM577.258 322.136C576.981 322.136 576.741 322.041 576.538 321.853C576.337 321.664 576.238 321.439 576.238 321.176C576.238 320.91 576.337 320.682 576.538 320.494C576.741 320.305 576.981 320.21 577.258 320.21C577.539 320.21 577.78 320.305 577.98 320.494C578.179 320.682 578.28 320.91 578.28 321.176C578.28 321.439 578.179 321.664 577.98 321.853C577.78 322.041 577.539 322.136 577.258 322.136ZM584.046 323.479V324.755H579.446V323.479H584.046ZM580.705 321.437H582.275V329.515C582.275 329.847 582.326 330.097 582.426 330.264C582.525 330.43 582.655 330.543 582.814 330.602C582.972 330.662 583.143 330.691 583.324 330.691C583.461 330.691 583.578 330.682 583.674 330.664C583.773 330.645 583.851 330.63 583.907 330.619L584.201 331.94C584.104 331.976 583.969 332.013 583.796 332.05C583.622 332.091 583.406 332.112 583.146 332.112C582.728 332.119 582.333 332.041 581.96 331.878C581.586 331.715 581.282 331.466 581.05 331.129C580.82 330.792 580.705 330.37 580.705 329.859V321.437ZM586.734 335.196C586.494 335.196 586.275 335.178 586.08 335.141C585.883 335.104 585.739 335.063 585.646 335.019L586.03 333.715C586.34 333.796 586.614 333.829 586.85 333.815C587.091 333.8 587.302 333.705 587.483 333.531C587.668 333.358 587.834 333.074 587.983 332.683L588.199 332.095L585.07 323.479H586.756L588.964 330.136H589.053L591.261 323.479H592.948L589.408 333.165C589.245 333.61 589.04 333.983 588.792 334.286C588.544 334.59 588.25 334.817 587.91 334.969C587.57 335.12 587.178 335.196 586.734 335.196Z" fill="#F6F6F6"/>
<path d="M562.447 164.047C562.447 128.454 533.593 99.6001 498 99.6001C462.407 99.6001 433.553 128.454 433.553 164.047C433.553 199.64 462.407 228.494 498 228.494C533.593 228.494 562.447 199.64 562.447 164.047Z" fill="#0A0A0A"/>
<path d="M561.959 164.047C561.959 128.723 533.324 100.088 498 100.088C462.676 100.088 434.041 128.723 434.041 164.047C434.041 199.371 462.676 228.006 498 228.006C533.324 228.006 561.959 199.371 561.959 164.047Z" stroke="url(#paint5_linear_115_62)" stroke-opacity="0.6" stroke-width="0.976471" stroke-dasharray="3.91 3.91"/>
<path d="M461.403 169.906V158.544H465.398C466.281 158.544 467.012 158.695 467.589 158.999C468.17 159.298 468.602 159.716 468.887 160.253C469.172 160.785 469.314 161.395 469.314 162.084C469.314 162.775 469.17 163.383 468.882 163.909C468.596 164.43 468.164 164.839 467.583 165.135C467.007 165.427 466.279 165.573 465.403 165.573H462.324V164.153H465.27C465.839 164.153 466.302 164.072 466.657 163.909C467.012 163.742 467.27 163.505 467.434 163.199C467.6 162.891 467.683 162.52 467.683 162.084C467.683 161.647 467.6 161.269 467.434 160.952C467.268 160.63 467.007 160.384 466.651 160.214C466.296 160.04 465.83 159.953 465.253 159.953H463.034V169.906H461.403ZM466.945 164.786L469.747 169.906H467.889L465.131 164.786H466.945ZM474.677 170.078C473.844 170.078 473.126 169.898 472.523 169.54C471.92 169.178 471.456 168.669 471.13 168.014C470.805 167.356 470.642 166.586 470.642 165.706C470.642 164.833 470.805 164.064 471.13 163.398C471.456 162.729 471.912 162.208 472.497 161.834C473.084 161.46 473.771 161.273 474.555 161.273C475.028 161.273 475.486 161.351 475.93 161.507C476.377 161.662 476.78 161.91 477.139 162.25C477.498 162.586 477.782 163.027 477.989 163.57C478.2 164.114 478.305 164.774 478.305 165.551V166.128H471.58V164.912H476.752C476.748 164.469 476.654 164.074 476.474 163.725C476.296 163.375 476.042 163.098 475.713 162.899C475.388 162.696 475.005 162.593 474.565 162.593C474.084 162.593 473.666 162.712 473.311 162.949C472.959 163.182 472.689 163.487 472.497 163.864C472.304 164.242 472.206 164.649 472.206 165.084V166C472.206 166.588 472.311 167.088 472.518 167.498C472.726 167.909 473.013 168.222 473.383 168.436C473.756 168.65 474.191 168.758 474.687 168.758C475.012 168.758 475.307 168.712 475.569 168.619C475.832 168.526 476.059 168.388 476.251 168.203C476.443 168.018 476.592 167.788 476.695 167.515L478.187 167.815C478.061 168.27 477.838 168.667 477.517 169.008C477.194 169.348 476.793 169.612 476.313 169.801C475.831 169.985 475.287 170.078 474.677 170.078ZM486.307 163.42L484.886 163.704C484.82 163.511 484.718 163.326 484.581 163.149C484.444 162.971 484.259 162.827 484.026 162.715C483.793 162.601 483.499 162.544 483.144 162.544C482.664 162.544 482.26 162.653 481.934 162.871C481.613 163.085 481.454 163.361 481.458 163.698C481.454 163.994 481.561 164.23 481.779 164.408C481.998 164.585 482.345 164.732 482.822 164.846L484.159 165.157C484.936 165.338 485.515 165.619 485.896 166C486.28 166.377 486.473 166.865 486.473 167.465C486.473 167.972 486.326 168.423 486.034 168.818C485.742 169.211 485.338 169.519 484.821 169.745C484.306 169.968 483.708 170.078 483.028 170.078C482.091 170.078 481.326 169.879 480.73 169.478C480.138 169.079 479.772 168.506 479.632 167.759L481.141 167.492C481.249 167.926 481.46 168.251 481.774 168.469C482.091 168.684 482.504 168.791 483.011 168.791C483.573 168.791 484.021 168.673 484.354 168.436C484.686 168.199 484.853 167.912 484.853 167.576C484.853 167.299 484.753 167.068 484.553 166.882C484.354 166.697 484.046 166.557 483.632 166.461L482.201 166.139C481.406 165.961 480.821 165.675 480.448 165.279C480.074 164.883 479.887 164.384 479.887 163.781C479.887 163.286 480.027 162.849 480.304 162.471C480.582 162.094 480.964 161.8 481.452 161.59C481.944 161.379 482.504 161.273 483.133 161.273C484.035 161.273 484.745 161.469 485.263 161.861C485.781 162.25 486.129 162.769 486.307 163.42ZM488.148 169.906V161.384H489.719V169.906H488.148ZM488.942 160.042C488.665 160.042 488.425 159.947 488.221 159.759C488.021 159.57 487.921 159.345 487.921 159.082C487.921 158.815 488.021 158.588 488.221 158.399C488.425 158.211 488.665 158.116 488.942 158.116C489.223 158.116 489.464 158.211 489.663 158.399C489.863 158.588 489.964 158.815 489.964 159.082C489.964 159.345 489.863 159.57 489.663 159.759C489.464 159.947 489.223 160.042 488.942 160.042ZM493.388 158.544V169.906H491.818V158.544H493.388ZM495.487 169.906V161.384H497.057V169.906H495.487ZM496.281 160.042C496.004 160.042 495.763 159.947 495.559 159.759C495.36 159.57 495.259 159.345 495.259 159.082C495.259 158.815 495.36 158.588 495.559 158.399C495.763 158.211 496.004 158.116 496.281 158.116C496.563 158.116 496.802 158.211 497.001 158.399C497.201 158.588 497.301 158.815 497.301 159.082C497.301 159.345 497.201 159.57 497.001 159.759C496.802 159.947 496.563 160.042 496.281 160.042ZM502.801 170.078C501.969 170.078 501.252 169.898 500.648 169.54C500.046 169.178 499.581 168.669 499.256 168.014C498.931 167.356 498.767 166.586 498.767 165.706C498.767 164.833 498.931 164.064 499.256 163.398C499.581 162.729 500.037 162.208 500.622 161.834C501.21 161.46 501.895 161.273 502.679 161.273C503.153 161.273 503.611 161.351 504.055 161.507C504.502 161.662 504.906 161.91 505.265 162.25C505.623 162.586 505.907 163.027 506.114 163.57C506.325 164.114 506.43 164.774 506.43 165.551V166.128H499.705V164.912H504.876C504.872 164.469 504.78 164.074 504.599 163.725C504.421 163.375 504.167 163.098 503.838 162.899C503.513 162.696 503.13 162.593 502.69 162.593C502.21 162.593 501.792 162.712 501.436 162.949C501.085 163.182 500.814 163.487 500.622 163.864C500.429 164.242 500.332 164.649 500.332 165.084V166C500.332 166.588 500.435 167.088 500.643 167.498C500.85 167.909 501.139 168.222 501.509 168.436C501.883 168.65 502.317 168.758 502.812 168.758C503.137 168.758 503.432 168.712 503.695 168.619C503.957 168.526 504.185 168.388 504.377 168.203C504.57 168.018 504.717 167.788 504.821 167.515L506.313 167.815C506.188 168.27 505.963 168.667 505.642 169.008C505.32 169.348 504.919 169.612 504.439 169.801C503.958 169.985 503.412 170.078 502.801 170.078ZM509.705 164.829V169.906H508.136V161.384H509.643V162.76H509.749C509.949 162.309 510.256 161.948 510.67 161.678C511.088 161.408 511.617 161.273 512.256 161.273C512.837 161.273 513.344 161.393 513.777 161.633C514.213 161.875 514.553 162.233 514.793 162.711C515.037 163.187 515.157 163.779 515.153 164.486V169.906H513.583V164.658C513.583 164.025 513.418 163.532 513.089 163.176C512.763 162.821 512.315 162.643 511.742 162.643C511.35 162.643 511 162.731 510.692 162.905C510.386 163.075 510.144 163.323 509.967 163.648C509.793 163.973 509.705 164.368 509.705 164.829ZM520.807 170.078C519.989 170.078 519.286 169.891 518.694 169.517C518.106 169.141 517.651 168.621 517.334 167.959C517.02 167.297 516.863 166.538 516.863 165.684C516.863 164.819 517.026 164.055 517.352 163.393C517.677 162.727 518.131 162.208 518.715 161.834C519.304 161.46 519.995 161.273 520.79 161.273C521.423 161.273 521.989 161.389 522.488 161.623C522.991 161.856 523.398 162.185 523.708 162.61C524.019 163.032 524.206 163.524 524.269 164.086H522.732C522.639 163.69 522.433 163.346 522.112 163.054C521.79 162.762 521.356 162.616 520.812 162.616C520.339 162.616 519.925 162.74 519.569 162.988C519.215 163.236 518.937 163.586 518.737 164.041C518.541 164.493 518.443 165.028 518.443 165.645C518.443 166.274 518.54 166.819 518.732 167.281C518.928 167.744 519.203 168.102 519.559 168.353C519.914 168.604 520.332 168.729 520.812 168.729C521.138 168.729 521.43 168.673 521.689 168.558C521.952 168.439 522.172 168.272 522.349 168.053C522.531 167.835 522.658 167.57 522.732 167.26H524.269C524.206 167.8 524.025 168.282 523.725 168.708C523.429 169.133 523.035 169.468 522.539 169.712C522.047 169.956 521.469 170.078 520.807 170.078ZM529.555 170.078C528.723 170.078 528.004 169.898 527.401 169.54C526.798 169.178 526.335 168.669 526.01 168.014C525.684 167.356 525.522 166.586 525.522 165.706C525.522 164.833 525.684 164.064 526.01 163.398C526.335 162.729 526.789 162.208 527.373 161.834C527.962 161.46 528.648 161.273 529.433 161.273C529.906 161.273 530.365 161.351 530.808 161.507C531.257 161.662 531.659 161.91 532.017 162.25C532.376 162.586 532.659 163.027 532.866 163.57C533.077 164.114 533.183 164.774 533.183 165.551V166.128H526.458V164.912H531.63C531.627 164.469 531.534 164.074 531.352 163.725C531.175 163.375 530.922 163.098 530.593 162.899C530.266 162.696 529.883 162.593 529.443 162.593C528.962 162.593 528.544 162.712 528.19 162.949C527.838 163.182 527.566 163.487 527.373 163.864C527.181 164.242 527.085 164.649 527.085 165.084V166C527.085 166.588 527.189 167.088 527.396 167.498C527.603 167.909 527.892 168.222 528.261 168.436C528.635 168.65 529.069 168.758 529.565 168.758C529.891 168.758 530.184 168.712 530.447 168.619C530.71 168.526 530.937 168.388 531.13 168.203C531.322 168.018 531.47 167.788 531.574 167.515L533.066 167.815C532.94 168.27 532.717 168.667 532.395 169.008C532.074 169.348 531.672 169.612 531.19 169.801C530.71 169.985 530.165 170.078 529.555 170.078Z" fill="#F6F6F6"/>
</g>
</g>
<defs>
<linearGradient id="paint0_linear_115_62" x1="656.188" y1="-65.7122" x2="508.738" y2="293.823" gradientUnits="userSpaceOnUse">
<stop stop-color="#F6F6F6"/>
<stop offset="1" stop-color="#F6F6F6" stop-opacity="0"/>
</linearGradient>
<linearGradient id="paint1_linear_115_62" x1="396.447" y1="29.295" x2="309.053" y2="116.689" gradientUnits="userSpaceOnUse">
<stop stop-color="#F6F6F6"/>
<stop offset="1" stop-color="#F6F6F6" stop-opacity="0"/>
</linearGradient>
<linearGradient id="paint2_linear_115_62" x1="163.071" y1="261.694" x2="75.6765" y2="349.089" gradientUnits="userSpaceOnUse">
<stop stop-color="#F6F6F6"/>
<stop offset="1" stop-color="#F6F6F6" stop-opacity="0"/>
</linearGradient>
<linearGradient id="paint3_linear_115_62" x1="230.447" y1="99.6001" x2="143.053" y2="186.994" gradientUnits="userSpaceOnUse">
<stop stop-color="#F6F6F6"/>
<stop offset="1" stop-color="#F6F6F6" stop-opacity="0"/>
</linearGradient>
<linearGradient id="paint4_linear_115_62" x1="629.824" y1="261.694" x2="542.429" y2="349.089" gradientUnits="userSpaceOnUse">
<stop stop-color="#F6F6F6"/>
<stop offset="1" stop-color="#F6F6F6" stop-opacity="0"/>
</linearGradient>
<linearGradient id="paint5_linear_115_62" x1="562.447" y1="99.6001" x2="475.053" y2="186.994" gradientUnits="userSpaceOnUse">
<stop stop-color="#F6F6F6"/>
<stop offset="1" stop-color="#F6F6F6" stop-opacity="0"/>
</linearGradient>
</defs>
</svg>
